<?xml version="1.0" encoding="iso-8859-1"?>
<!-- Uploaded to: SVG Repo, www.svgrepo.com, Generator: SVG Repo Mixer Tools -->
<svg version="1.1" id="Layer_1" xmlns="http://www.w3.org/2000/svg" xmlns:xlink="http://www.w3.org/1999/xlink" 
	 viewBox="0 0 512 512" xml:space="preserve">
<polygon style="fill:#64C1DF;" points="52.787,105.731 9.017,406.269 199.867,406.269 233.121,288.758 278.878,288.758 
	312.133,406.269 502.982,406.269 459.213,105.731 "/>
<g>
	<path style="fill:#FFFFFF;" d="M477.863,233.796c-39.619-5.824-70.035-39.946-70.035-81.182v-5.285h57.442L477.863,233.796z"/>
	<path style="fill:#FFFFFF;" d="M34.136,233.796c39.619-5.824,70.035-39.946,70.035-81.182v-5.285H46.729L34.136,233.796z"/>
</g>
<g>
	<polygon style="fill:#37A0BD;" points="278.878,288.758 312.133,406.269 333.451,406.269 300.196,288.758 	"/>
	<polygon style="fill:#37A0BD;" points="178.549,406.269 199.867,406.269 233.121,288.758 211.803,288.758 	"/>
</g>
<g>
	<polygon style="fill:#FFFFFF;" points="13.395,375.071 214.402,375.071 199.864,406.269 9.017,406.269 	"/>
	<polygon style="fill:#FFFFFF;" points="502.982,406.269 312.135,406.269 297.596,375.071 498.604,375.071 	"/>
</g>
<polygon style="fill:#DDB92E;" points="465.253,147.328 46.746,147.328 52.788,105.731 459.211,105.731 "/>
<g>
	<polygon style="fill:#F9D85C;" points="462.238,126.529 49.772,126.529 52.788,105.731 459.211,105.731 	"/>
	<rect x="222.461" y="105.73" style="fill:#F9D85C;" width="67.075" height="41.597"/>
</g>
<path d="M306.233,414.069H512L465.959,97.931H46.041L0,414.069h205.767l33.254-117.512h33.959L306.233,414.069z M263.799,280.958
	v-23.786c14.889-3.531,25.998-16.936,25.998-32.89v-69.155h110.289c0.582,20.802,8.336,40.775,22.024,56.486
	c12.798,14.692,29.975,24.777,48.841,28.834l18.47,126.825H309.202l-20.011-70.715h24.005v-15.599H263.799z M230.261,139.528V113.53
	h51.476v25.998H230.261z M318.031,398.47l-4.414-15.599h178.076l2.272,15.599H318.031z M468.518,223.735
	c-13.326-4.005-25.373-11.722-34.646-22.368c-11.212-12.871-17.624-29.206-18.2-46.24h42.854L468.518,223.735z M456.254,139.528
	h-56.225H297.337V113.53h155.131L456.254,139.528z M214.662,113.53v25.998H111.97H55.746l3.786-25.998
	C59.533,113.53,214.662,113.53,214.662,113.53z M53.474,155.127h42.854c-0.576,17.034-6.987,33.369-18.201,46.24
	c-9.273,10.645-21.321,18.363-34.646,22.368L53.474,155.127z M18.035,398.47l2.271-15.599h178.076l-4.414,15.599H18.035z
	 M202.798,367.272H22.579l18.47-126.825c18.867-4.057,36.043-14.143,48.841-28.834c13.686-15.711,21.441-35.685,22.024-56.486
	h162.286v69.155c0,10.034-8.164,18.199-18.199,18.199h-7.799v38.477h-49.396v15.599h24.005L202.798,367.272z"/>
</svg>