<?xml version="1.0" encoding="iso-8859-1"?>
<!-- Uploaded to: SVG Repo, www.svgrepo.com, Generator: SVG Repo Mixer Tools -->
<svg height="800px" width="800px" version="1.1" id="Layer_1" xmlns="http://www.w3.org/2000/svg" xmlns:xlink="http://www.w3.org/1999/xlink" 
	 viewBox="0 0 512 512" xml:space="preserve">
<path style="fill:#4881C2;" d="M474.302,289.155L350.3,137.431c-9.981-12.21-1.261-30.585,14.503-30.585h120.668
	c10.185,0,18.503,8.138,18.726,18.321l3.334,151.725C507.924,294.674,485.53,302.895,474.302,289.155z"/>
<path style="fill:#3797D3;" d="M4.467,276.891l3.334-151.725c0.224-10.182,8.542-18.321,18.726-18.321h120.668
	c15.772,0,24.481,18.378,14.503,30.585L37.696,289.155C26.49,302.87,4.075,294.74,4.467,276.891z"/>
<path style="fill:#48AEE2;" d="M507.538,276.89c-0.1-4.183-1.586-8.204-4.233-11.439L379.303,113.727
	c-3.546-4.358-8.879-6.881-14.498-6.881H147.195c-5.619,0-10.952,2.522-14.498,6.881L8.695,265.451
	c-2.647,3.234-4.133,7.255-4.233,11.439L0.004,479.327c-0.209,10.5,8.227,19.143,18.731,19.143h165.898
	c7.742,0,14.685-4.758,17.47-11.976l53.834-139.274l0.062-0.162l0.05,0.112l53.847,139.324c2.785,7.218,9.728,11.976,17.47,11.976
	h165.898c10.501,0,18.94-8.641,18.731-19.143L507.538,276.89z"/>
<g>
	<path style="fill:#3797D3;" d="M507.538,276.89c-0.1-4.183-1.586-8.204-4.233-11.439L379.303,113.727
		c-3.546-4.358-8.879-6.881-14.498-6.881H256v240.212l0.05,0.112l53.847,139.324c2.785,7.218,9.728,11.976,17.47,11.976h165.898
		c10.501,0,18.94-8.641,18.731-19.143L507.538,276.89z"/>
	<path style="fill:#3797D3;" d="M315.341,106.846v149.027c0,40.647-24.388,75.7-59.291,91.297c-0.037,0.025-0.075,0.037-0.112,0.05
		c-12.4,5.532-26.124,8.604-40.547,8.604c-10.352,0-18.731-8.379-18.731-18.731c0-10.34,8.379-18.731,18.731-18.731
		c34.453,0,62.488-28.035,62.488-62.488V106.846H315.341z"/>
</g>
<path style="fill:#4881C2;" d="M277.878,106.846v149.027c0,18.96-8.502,35.963-21.878,47.433v43.887
	c0.016-0.008,0.034-0.011,0.05-0.022c34.903-15.597,59.291-50.65,59.291-91.297V106.846H277.878z"/>
<path style="fill:#47568C;" d="M504.209,144.311H7.791V32.261c0-10.345,8.387-18.731,18.731-18.731h458.954
	c10.345,0,18.731,8.387,18.731,18.731v112.05H504.209z"/>
<path style="fill:#2C3B73;" d="M504.209,32.261c0-10.345-8.387-18.731-18.731-18.731H256v130.782h248.209L504.209,32.261
	L504.209,32.261z"/>
<path style="fill:#FFC72D;" d="M317.389,144.311H194.611c-10.345,0-18.731-8.387-18.731-18.731V32.261
	c0-10.345,8.387-18.731,18.731-18.731h122.778c10.345,0,18.731,8.387,18.731,18.731v93.319
	C336.121,135.925,327.734,144.311,317.389,144.311z"/>
<path style="fill:#FFAF00;" d="M317.389,13.53H256v130.782h61.389c10.345,0,18.731-8.387,18.731-18.731V32.261
	C336.121,21.915,327.734,13.53,317.389,13.53z"/>
</svg>