<?xml version="1.0" encoding="iso-8859-1"?>
<!-- Uploaded to: SVG Repo, www.svgrepo.com, Generator: SVG Repo Mixer Tools -->
<svg version="1.1" id="Layer_1" xmlns="http://www.w3.org/2000/svg" xmlns:xlink="http://www.w3.org/1999/xlink" 
	 viewBox="0 0 512 512" xml:space="preserve">
<g>
	<rect x="49.601" y="39.727" style="fill:#88420E;" width="412.776" height="48.9"/>
	<polygon style="fill:#88420E;" points="256,88.624 256,322.69 229.31,472.275 10.449,472.275 10.449,291.471 49.596,88.624 	"/>
</g>
<polygon style="fill:#FFD21D;" points="10.449,428.389 10.449,472.275 229.31,472.275 237.141,428.389 "/>
<path style="fill:#662C04;" d="M10.515,291.327L49.596,88.624h63.67C107.884,185.053,96.024,265.171,10.515,291.327z"/>
<polygon style="fill:#88420E;" points="256,88.624 256,322.69 282.69,472.275 501.551,472.275 501.551,291.471 462.404,88.624 "/>
<polygon style="fill:#FFD21D;" points="274.859,428.389 282.69,472.275 501.551,472.275 501.551,428.389 "/>
<path style="fill:#662C04;" d="M501.486,291.327L462.404,88.624h-63.67C404.116,185.053,415.976,265.171,501.486,291.327z"/>
<path d="M192.24,375.118h-4.678c-5.77,0-10.449,4.678-10.449,10.449c0,5.771,4.679,10.449,10.449,10.449h4.678
	c5.77,0,10.449-4.678,10.449-10.449C202.689,379.796,198.01,375.118,192.24,375.118z"/>
<path d="M153.758,375.118H52.267c-5.77,0-10.449,4.678-10.449,10.449c0,5.771,4.679,10.449,10.449,10.449h101.492
	c5.77,0,10.449-4.678,10.449-10.449C164.208,379.796,159.529,375.118,153.758,375.118z"/>
<path d="M511.811,289.491L473.296,89.923l-0.48-2.489v-47.71c0-5.771-4.679-10.449-10.449-10.449H49.596
	c-5.77,0-10.449,4.678-10.449,10.449v47.9l-0.443,2.298L0.189,289.491C0.063,290.144,0,290.806,0,291.471v136.918v43.886
	c0,5.771,4.678,10.449,10.449,10.449H229.31c5.064,0,9.397-3.63,10.287-8.614l7.83-43.886c0-0.001,0-0.003,0.001-0.004L256,382.178
	l8.571,48.042c0.001,0.001,0.001,0.003,0.001,0.004l7.83,43.886c0.89,4.984,5.223,8.614,10.287,8.614h218.861
	c5.77,0,10.449-4.678,10.449-10.449V428.39V291.471C512,290.806,511.937,290.144,511.811,289.491z M228.391,417.94H20.898v-119.05
	c38.411-13.711,64.864-39.499,80.725-78.637c13.32-32.871,18.453-72.442,21.494-121.18h122.435v222.693L228.391,417.94z
	 M102.177,99.073c-2.918,46.083-7.753,83.299-19.923,113.331c-12.166,30.02-30.799,50.259-57.952,62.605L58.223,99.073H102.177z
	 M266.449,321.765V99.073h122.435c3.041,48.738,8.173,88.307,21.494,121.18c15.86,39.138,42.313,64.926,80.725,78.637v119.05
	H283.609L266.449,321.765z M453.777,99.073l33.921,175.935c-27.153-12.345-45.786-32.584-57.952-62.605
	c-12.17-30.031-17.005-67.248-19.923-113.331h43.955V99.073z M60.045,50.173h391.873v28.002H60.045V50.173z M20.898,461.826v-22.988
	h203.763l-4.101,22.988H20.898z M491.102,461.826H291.44l-4.101-22.988h203.763V461.826z"/>
</svg>