<?xml version="1.0" encoding="iso-8859-1"?>
<!-- Uploaded to: SVG Repo, www.svgrepo.com, Generator: SVG Repo Mixer Tools -->
<svg version="1.1" id="Layer_1" xmlns="http://www.w3.org/2000/svg" xmlns:xlink="http://www.w3.org/1999/xlink" 
	 viewBox="0 0 512 512" xml:space="preserve">
<rect x="158.753" y="107.509" style="fill:#A67C52;" width="195.449" height="33.658"/>
<polyline style="fill:#8CC63F;" points="392.293,245.69 423.885,245.69 423.885,286.435 423.885,504.323 278.099,504.323 
	256.474,398.03 234.861,504.323 89.075,504.323 89.075,286.435 89.075,245.69 120.668,245.69 "/>
<rect x="89.073" y="245.69" style="fill:#A67C52;" width="334.81" height="40.746"/>
<path style="fill:#FDBB00;" d="M293.178,222.069h-73.397c-8.593,0-15.559,6.966-15.559,15.559v59.226
	c0,8.593,6.966,15.559,15.559,15.559h73.397c8.593,0,15.559-6.966,15.559-15.559v-59.226
	C308.737,229.035,301.771,222.069,293.178,222.069z"/>
<g>
	<rect x="230.206" y="248.052" style="fill:#A67C52;" width="52.55" height="38.379"/>
	<polyline style="fill:#A67C52;" points="172.045,157.112 172.045,316.551 146.357,344.884 120.67,316.551 120.67,157.112 	"/>
	<polyline style="fill:#A67C52;" points="120.67,91.565 120.67,10.039 172.045,10.039 172.045,91.565 	"/>
	<polyline style="fill:#A67C52;" points="392.293,157.112 392.293,316.551 366.605,344.884 340.918,316.551 340.918,157.112 	"/>
	<polyline style="fill:#A67C52;" points="340.918,91.565 340.918,10.039 392.293,10.039 392.293,91.565 	"/>
</g>
<g>
	<path style="fill:#FDBB00;" d="M176.464,91.571h-60.218c-4.895,0-8.862,3.968-8.862,8.862v47.818c0,4.895,3.968,8.862,8.862,8.862
		h60.218c4.895,0,8.862-3.968,8.862-8.862v-47.818C185.327,95.538,181.358,91.571,176.464,91.571z"/>
	<path style="fill:#FDBB00;" d="M396.712,91.571h-60.218c-4.895,0-8.862,3.968-8.862,8.862v47.818c0,4.895,3.968,8.862,8.862,8.862
		h60.218c4.895,0,8.862-3.968,8.862-8.862v-47.818C405.576,95.538,401.607,91.571,396.712,91.571z"/>
</g>
<path d="M423.405,235.651H400.67V222.66c0-4.892-3.966-8.858-8.858-8.858s-8.858,3.966-8.858,8.858v89.293l-16.83,18.563
	l-16.83-18.563V164.791h33.659v28.342c0,4.892,3.966,8.858,8.858,8.858s8.858-3.966,8.858-8.858v-28.928
	c7.626-1.978,13.283-8.899,13.283-17.136V99.253c0-8.236-5.656-15.157-13.283-17.136V8.858c0-4.892-3.966-8.858-8.858-8.858h-51.375
	c-4.892,0-8.858,3.966-8.858,8.858v73.258c-7.073,1.833-12.452,7.914-13.197,15.359H193.614
	c-0.745-7.443-6.121-13.524-13.192-15.358V8.858c0-4.892-3.966-8.858-8.858-8.858h-51.375c-4.892,0-8.858,3.966-8.858,8.858v73.258
	c-7.628,1.976-13.287,8.899-13.287,17.137v47.818c0,9.771,7.95,17.72,17.72,17.72h46.941v147.161l-16.83,18.563l-16.83-18.563
	V182.506c0-4.892-3.966-8.858-8.858-8.858c-4.892,0-8.858,3.966-8.858,8.858v53.145H88.594c-4.892,0-8.858,3.966-8.858,8.858
	v258.634c0,4.892,3.966,8.858,8.858,8.858h145.786c4.212,0,7.841-2.966,8.681-7.092l6.091-29.953
	c0.021-0.098,0.041-0.196,0.06-0.295l6.785-33.368l6.803,33.438c0.011,0.052,0.021,0.104,0.032,0.157l6.107,30.021
	c0.84,4.127,4.469,7.092,8.681,7.092h145.786c4.892,0,8.858-3.966,8.858-8.858V244.509
	C432.262,239.617,428.296,235.651,423.405,235.651z M414.547,253.366v23.03H400.67v-23.03H414.547z M193.614,148.849h124.769
	c0.745,7.444,6.124,13.526,13.197,15.358v71.444h-14.505c-0.425-13.093-11.182-23.621-24.376-23.621H219.3
	c-13.194,0-23.951,10.528-24.376,23.621h-14.502v-71.445C187.491,162.372,192.869,156.292,193.614,148.849z M396.231,99.248
	l0.005,0.005l-0.005,47.823l-60.223-0.005l0.005-47.823H396.231z M180.422,253.366h14.462v23.03h-14.462V253.366z M212.598,285.345
	c0-0.031,0.005-0.06,0.005-0.091s-0.005-0.06-0.005-0.091v-40.562c0-0.031,0.005-0.06,0.005-0.091c0-0.031-0.005-0.06-0.005-0.091
	v-7.971c0-3.694,3.006-6.701,6.701-6.701h73.397c3.695,0,6.701,3.006,6.701,6.701v8.017c0,0.015-0.002,0.03-0.002,0.046
	c0,0.017,0.002,0.031,0.002,0.046v40.655c0,0.015-0.002,0.03-0.002,0.046s0.002,0.031,0.002,0.046v10.373
	c0,3.695-3.006,6.701-6.701,6.701h-73.397c-3.695,0-6.701-3.006-6.701-6.701V285.345z M317.114,253.366h14.465v23.03h-14.465
	V253.366z M382.954,17.715v63.817h-33.659V17.715H382.954z M318.293,131.133H193.704v-15.943h124.589V131.133z M162.706,17.715
	v63.817h-33.659V17.715H162.706z M115.76,147.07l0.005-47.823h60.218l0.005,0.005l-0.005,47.823L115.76,147.07z M111.332,253.366
	v23.03H97.452v-23.03H111.332z M97.452,494.285v-12.401h132.212l-2.521,12.401H97.452z M284.856,494.285l-2.523-12.401h76.54
	c4.892,0,8.858-3.966,8.858-8.858c0-4.892-3.966-8.858-8.858-8.858h-80.145l-14.055-69.086c-0.84-4.128-4.469-7.092-8.681-7.092
	c-4.212,0-7.841,2.966-8.679,7.092l-14.047,69.086H97.452V294.112h13.878v21.259c0,2.199,0.818,4.32,2.296,5.95l25.687,28.333
	c1.678,1.852,4.062,2.908,6.562,2.908c2.5,0,4.884-1.057,6.562-2.908l25.687-28.333c1.477-1.63,2.296-3.75,2.296-5.95v-21.259
	h14.462v1.561c0,13.464,10.953,24.417,24.417,24.417h73.397c13.464,0,24.417-10.953,24.417-24.417v-1.561h14.465v21.259
	c0,2.199,0.818,4.32,2.296,5.95l25.687,28.333c1.678,1.852,4.062,2.908,6.562,2.908s4.884-1.057,6.562-2.908l25.687-28.333
	c1.477-1.63,2.296-3.75,2.296-5.95v-21.259h13.877v170.057h-27.92c-4.892,0-8.858,3.966-8.858,8.858
	c0,4.892,3.966,8.858,8.858,8.858h27.92v12.401L284.856,494.285L284.856,494.285z"/>
<path d="M229.724,294.106h52.55c4.892,0,8.858-3.966,8.858-8.858v-38.379c0-4.892-3.966-8.858-8.858-8.858h-52.55
	c-4.892,0-8.858,3.966-8.858,8.858v38.379C220.866,290.14,224.832,294.106,229.724,294.106z M238.582,255.727h34.834v20.663h-34.834
	V255.727z"/>
<path d="M158.275,114.304h-24.8c-4.892,0-8.858,3.966-8.858,8.858s3.966,8.858,8.858,8.858h24.8c4.892,0,8.858-3.966,8.858-8.858
	S163.167,114.304,158.275,114.304z"/>
<path d="M353.723,132.019h24.8c4.892,0,8.858-3.966,8.858-8.858s-3.966-8.858-8.858-8.858h-24.8c-4.892,0-8.858,3.966-8.858,8.858
	S348.831,132.019,353.723,132.019z"/>
<circle cx="366.119" cy="299.426" r="8.858"/>
<circle cx="145.774" cy="299.426" r="8.858"/>
</svg>