<?xml version="1.0" encoding="utf-8"?>
<!-- Uploaded to: SVG Repo, www.svgrepo.com, Generator: SVG Repo Mixer Tools -->
<svg width="800px" height="800px" viewBox="0 0 1024 1024" class="icon"  version="1.1" xmlns="http://www.w3.org/2000/svg"><path d="M752 336V80H272v256c0 120-16 608-16 608h200s40-264 56-608c16 344 56 608 56 608h200s-16-488-16-608z" fill="#9368C9" /><path d="M272 80h480v48H272z" fill="#FFD53E" /><path d="M259.28 840h210.48l-4 32H258.32l0.96-32zM764.72 840H554.24l4 32h207.44l-0.96-32zM477.2 776c-1.2 11.2-2.4 21.84-3.6 32H260.32c0-10.32 0.64-20.96 0.96-32zM763.68 808H550.4c-1.2-10.16-2.4-20.8-3.6-32h216c0.24 11.04 0.56 21.68 0.88 32z" fill="#FFFFFF" /></svg>