<?xml version="1.0" encoding="iso-8859-1"?>
<!-- Uploaded to: SVG Repo, www.svgrepo.com, Generator: SVG Repo Mixer Tools -->
<svg height="800px" width="800px" version="1.1" id="Layer_1" xmlns="http://www.w3.org/2000/svg" xmlns:xlink="http://www.w3.org/1999/xlink" 
	 viewBox="0 0 512 512" xml:space="preserve">
<g transform="translate(1)">
	<g>
		<path style="fill:#FDCC00;" d="M220.894,42.667c0-10.24,4.267-19.627,11.947-25.6h-80.213c-5.12,0-8.533,3.413-8.533,8.533v42.667
			h88.747C225.16,62.293,220.894,52.907,220.894,42.667"/>
		<path style="fill:#FDCC00;" d="M357.427,17.067h-80.213c7.68,5.973,11.947,15.36,11.947,25.6s-4.267,19.627-11.947,25.6h88.747
			V25.6C365.96,20.48,362.547,17.067,357.427,17.067"/>
	</g>
	<g>
		<path style="fill:#FFE100;" d="M185.907,486.4c-8.533-55.467-32.427-187.733-25.6-247.467c8.533-76.8,34.133-153.6,42.667-170.667
			H143.24c-8.533,17.067-34.133,93.867-42.667,170.667c-6.827,59.733,17.067,174.933,25.6,230.4c0,0,23.04,12.8,65.707,20.48
			C187.614,487.253,185.907,486.4,185.907,486.4"/>
		<path style="fill:#FFE100;" d="M407.774,238.933c-8.533-76.8-34.133-153.6-42.667-170.667h-59.733
			c8.533,17.067,34.133,93.867,42.667,170.667c6.827,59.733-17.067,192-25.6,247.467c0,0-1.707,1.707-5.973,3.413
			c41.813-7.68,65.707-20.48,65.707-20.48C390.707,413.867,413.747,298.667,407.774,238.933"/>
	</g>
	<g>
		<path style="fill:#FFA800;" d="M357.427,17.067h-25.6c5.12,0,8.533,3.413,8.533,8.533v42.667h25.6V25.6
			C365.96,20.48,362.547,17.067,357.427,17.067"/>
		<path style="fill:#FFA800;" d="M407.774,238.933c-8.533-76.8-34.133-153.6-42.667-170.667h-25.6
			c8.533,17.067,34.133,93.867,42.667,170.667c6.827,59.733-17.067,174.933-25.6,230.4c0,0-11.947,5.973-33.28,12.8
			c0,1.707-0.853,3.413-0.853,4.267c0,0-1.707,1.707-5.973,3.413c41.813-7.68,65.707-20.48,65.707-20.48
			C390.707,413.867,413.747,298.667,407.774,238.933"/>
	</g>
	<g>
		<path style="fill:#FFFFFF;" d="M152.627,17.067h25.6c-5.12,0-8.533,3.413-8.533,8.533v42.667h-25.6V25.6
			C144.094,20.48,147.507,17.067,152.627,17.067"/>
		<path style="fill:#FFFFFF;" d="M102.28,238.933c8.533-76.8,34.133-153.6,42.667-170.667h25.6
			c-8.533,17.067-34.133,93.867-42.667,170.667c-6.827,59.733,17.067,174.933,25.6,230.4c0,0,11.947,5.973,33.28,12.8
			c0,1.707,0.853,3.413,0.853,4.267c0,0,1.707,1.707,5.973,3.413c-41.813-7.68-65.707-20.48-65.707-20.48
			C119.347,413.867,96.307,298.667,102.28,238.933"/>
	</g>
	<path style="fill:#FFE100;" d="M348.894,238.933c-8.533-76.8-34.133-153.6-42.667-170.667h-29.013
		c-5.973,5.12-13.653,8.533-22.187,8.533c-8.533,0-16.213-3.413-22.187-8.533h-29.013c-8.533,17.067-34.133,93.867-42.667,170.667
		c-6.827,59.733,17.067,192,25.6,247.467c0,0,25.6,17.067,68.267,17.067s68.267-17.067,68.267-17.067
		C331.827,430.933,355.72,298.667,348.894,238.933"/>
	<path style="fill:#63D3FD;" d="M289.16,42.667c0-18.773-15.36-34.133-34.133-34.133s-34.133,15.36-34.133,34.133
		S236.254,76.8,255.027,76.8S289.16,61.44,289.16,42.667"/>
	<path d="M255.027,85.333c-23.893,0-42.667-18.773-42.667-42.667S231.134,0,255.027,0s42.667,18.773,42.667,42.667
		S278.92,85.333,255.027,85.333z M255.027,17.067c-14.507,0-25.6,11.093-25.6,25.6s11.093,25.6,25.6,25.6s25.6-11.093,25.6-25.6
		S269.534,17.067,255.027,17.067z"/>
	<path d="M232.84,76.8h-88.747c-5.12,0-8.533-4.267-8.533-8.533V25.6c0-9.387,7.68-17.067,17.067-17.067h80.213
		c3.413,0,6.827,2.56,7.68,5.12c0.853,2.56,0,6.827-2.56,9.387c-5.973,5.12-8.533,11.947-8.533,18.773
		c0,7.68,3.413,14.507,8.533,18.773c2.56,2.56,3.413,5.973,2.56,9.387C239.667,74.24,236.254,76.8,232.84,76.8z M152.627,59.733
		h63.147c-2.56-5.12-3.413-11.093-3.413-17.067s0.853-11.947,3.413-17.067h-63.147V59.733z"/>
	<path d="M365.96,76.8h-88.747c-3.413,0-6.827-2.56-7.68-5.12c-0.853-2.56,0-6.827,2.56-9.387c5.973-5.12,8.533-11.947,8.533-18.773
		c0-7.68-3.413-14.507-8.533-18.773c-2.56-2.56-3.413-5.973-2.56-9.387c0.853-3.413,4.267-6.827,7.68-6.827h80.213
		c9.387,0,17.067,7.68,17.067,17.067v42.667C374.494,72.533,371.08,76.8,365.96,76.8z M294.28,59.733h63.147V25.6H294.28
		c2.56,5.12,3.413,11.093,3.413,17.067S296.84,54.613,294.28,59.733z"/>
	<path d="M263.56,42.667c0-5.12-3.413-8.533-8.533-8.533c-5.12,0-8.533,3.413-8.533,8.533s3.413,8.533,8.533,8.533
		C260.147,51.2,263.56,46.933,263.56,42.667"/>
	<path d="M192.734,498.347c-0.853,0-0.853,0-1.707,0c-42.667-7.68-67.413-20.48-68.267-21.333c-2.56-0.853-4.267-3.413-4.267-5.973
		c-1.707-9.387-3.413-21.333-5.973-34.133c-11.093-62.293-25.6-148.48-19.627-198.827c8.533-78.507,34.987-156.16,43.52-174.08
		c1.707-2.56,4.267-4.267,7.68-4.267h59.733c2.56,0,5.973,1.707,7.68,4.267c1.707,2.56,1.707,5.973,0,8.533
		c-8.533,16.213-33.28,93.013-41.813,168.107c-5.973,52.053,12.8,164.693,22.187,225.28l2.56,15.36c0.853,0,0.853,0.853,1.707,0.853
		c3.413,1.707,5.973,5.973,4.267,10.24C199.56,495.787,196.147,498.347,192.734,498.347z M134.707,463.36
		c5.973,2.56,20.48,8.533,41.813,13.653l-1.707-9.387c-11.093-65.707-28.16-175.787-22.187-230.4
		c7.68-65.707,27.307-131.413,38.4-161.28h-41.813c-9.387,23.893-31.573,94.72-39.253,163.84
		c-5.12,47.787,9.387,135.68,19.627,194.56C131.294,444.587,133,454.827,134.707,463.36z"/>
	<path d="M317.32,498.347c-3.413,0-6.827-2.56-7.68-5.973c-1.707-4.267,0.853-8.533,4.267-10.24c0.853,0,0.853-0.853,1.707-0.853
		l2.56-15.36c10.24-60.587,28.16-173.227,22.187-225.28c-8.533-75.093-33.28-151.04-41.813-168.107c-1.707-2.56-0.853-5.973,0-8.533
		c1.707-2.56,5.12-4.267,7.68-4.267h59.733c3.413,0,5.973,1.707,7.68,5.12c8.533,17.92,34.987,95.573,43.52,173.227
		c5.973,50.347-9.387,136.533-19.627,198.827c-2.56,12.8-4.267,23.893-5.973,34.133c0,2.56-1.707,5.12-4.267,5.973
		c-0.853,0.853-24.747,13.653-68.267,21.333C319.027,498.347,318.174,498.347,317.32,498.347z M319.027,76.8
		c11.093,29.867,30.72,95.573,38.4,161.28c5.973,54.613-11.947,164.693-22.187,230.4l-1.707,9.387
		c21.333-5.12,35.84-11.093,41.813-13.653c1.707-8.533,3.413-18.773,5.12-29.867c10.24-58.027,24.747-145.92,19.627-193.707
		c-7.68-69.973-29.867-140.8-39.253-163.84H319.027z"/>
	<path d="M255.027,512c-44.373,0-71.68-17.92-72.533-18.773c-1.707-1.707-3.413-3.413-3.413-5.973l-3.413-19.627
		c-11.093-65.707-28.16-175.787-22.187-230.4C162.014,158.72,188.467,81.067,197,64c0.853-2.56,3.413-4.267,6.827-4.267h29.013
		c1.707,0,4.267,0.853,5.973,1.707c2.56,3.413,8.533,6.827,16.213,6.827c7.68,0,13.653-3.413,17.067-6.827
		c0.853-0.853,3.413-1.707,5.12-1.707h29.013c3.413,0,5.973,1.707,7.68,5.12c8.533,17.92,34.987,95.573,43.52,173.227
		c5.973,54.613-11.947,164.693-22.187,230.4l-3.413,19.627c0,2.56-1.707,4.267-3.413,5.973C326.707,494.08,299.4,512,255.027,512z
		 M194.44,481.28c7.68,4.267,29.867,13.653,60.587,13.653c31.573,0,52.907-9.387,60.587-13.653l2.56-15.36
		c10.24-60.587,28.16-173.227,22.187-225.28c-7.68-69.973-29.867-140.8-39.253-163.84h-20.48c-14.507,11.093-35.84,11.093-50.347,0
		H209.8c-10.24,23.04-32.427,93.867-40.107,162.987c-5.973,52.053,12.8,164.693,22.187,225.28L194.44,481.28z"/>
	<path d="M255.027,512c-5.12,0-8.533-3.413-8.533-8.533V76.8c0-5.12,3.413-8.533,8.533-8.533c5.12,0,8.533,3.413,8.533,8.533
		v426.667C263.56,507.733,260.147,512,255.027,512z"/>
</g>
</svg>