<?xml version="1.0" encoding="iso-8859-1"?>
<!-- Uploaded to: SVG Repo, www.svgrepo.com, Generator: SVG Repo Mixer Tools -->
<svg height="800px" width="800px" version="1.1" id="Layer_1" xmlns="http://www.w3.org/2000/svg" xmlns:xlink="http://www.w3.org/1999/xlink" 
	 viewBox="0 0 512 512" xml:space="preserve">
<g transform="translate(1)">
	<g>
		<path style="fill:#FFE100;" d="M481.932,413.867l-26.453-64c-4.267,10.24-10.24,18.773-18.773,26.453
			c-12.8,10.24-29.013,16.213-46.08,16.213c-30.72,0-56.32-16.213-66.56-42.667c-10.24,26.453-37.547,42.667-68.267,42.667
			s-58.027-16.213-68.267-42.667c-10.24,26.453-34.987,42.667-65.707,42.667c-23.893,0-45.227-11.093-58.88-29.013
			c-2.56-4.267-5.12-8.533-6.827-12.8l-28.16,69.12c-5.12,18.773-2.56,38.4,8.533,53.76c11.947,18.773,32.427,29.867,55.467,29.867
			s40.96-8.533,52.907-25.6c11.947,17.067,34.133,25.6,57.173,25.6s41.813-8.533,53.76-25.6c11.947,17.067,33.28,25.6,56.32,25.6
			c23.04,0,42.667-8.533,54.613-25.6c11.947,17.067,32.427,25.6,55.467,25.6c1.707,0,4.267,0,5.973,0
			C470.839,499.2,496.439,453.973,481.932,413.867"/>
		<path style="fill:#FFE100;" d="M458.892,309.76l-17.067-100.693c-3.413,11.093-9.387,22.187-19.627,29.867
			c-11.093,8.533-26.453,14.507-42.667,14.507c-28.16,0-54.613-13.653-64-36.693c-9.387,23.04-31.573,36.693-59.733,36.693
			s-50.347-13.653-59.733-36.693c-9.387,23.04-34.987,36.693-63.147,36.693c-22.187,0-41.813-10.24-53.76-25.6
			c-4.267-5.12-6.827-11.947-8.533-17.92L53.559,311.467c-4.267,17.92-0.853,37.547,10.24,52.907
			c12.8,17.067,34.133,29.013,58.88,29.013c30.72,0,56.32-16.213,65.707-42.667c10.24,26.453,37.547,42.667,68.267,42.667
			s58.027-16.213,68.267-42.667c10.24,26.453,35.84,42.667,66.56,42.667c17.92,0,34.133-5.973,46.08-16.213
			C457.185,360.107,464.865,333.653,458.892,309.76"/>
		<path style="fill:#FFE100;" d="M441.825,179.2L417.932,68.267h-122.88c-6.827,15.36-21.333,25.6-39.253,25.6
			s-32.427-10.24-39.253-25.6H93.665L69.772,180.053c-3.413,16.213-0.853,33.28,9.387,46.933c11.947,15.36,31.573,25.6,53.76,25.6
			c28.16,0,53.76-13.653,63.147-36.693c9.387,23.04,31.573,36.693,59.733,36.693s50.347-13.653,59.733-36.693
			c9.387,23.04,34.987,36.693,64,36.693c16.213,0,30.72-5.12,42.667-14.507C440.119,224.427,446.945,200.533,441.825,179.2"/>
	</g>
	<g>
		<path style="fill:#FDCC00;" d="M298.465,51.2c0,5.973-1.707,11.947-3.413,17.067h122.88L409.399,25.6H289.932
			C295.052,32.427,298.465,41.813,298.465,51.2"/>
		<path style="fill:#FDCC00;" d="M213.132,51.2c0-9.387,3.413-18.773,8.533-25.6H102.199l-8.533,42.667h122.88
			C214.839,63.147,213.132,57.173,213.132,51.2"/>
	</g>
	<g>
		<path style="fill:#FFA800;" d="M481.932,413.867l-26.453-64c-3.413,8.533-8.533,17.067-16.213,23.04l17.067,40.107
			c13.653,38.4-9.387,81.92-47.787,88.747c4.267,0.853,9.387,0.853,13.653,0.853c1.707,0,4.267,0,5.973,0
			C470.839,499.2,496.439,453.973,481.932,413.867"/>
		<path style="fill:#FFA800;" d="M458.892,309.76l-17.067-100.693c-3.413,11.093-9.387,22.187-19.627,29.867c0,0,0,0-0.853,0.853
			l11.947,70.827c5.973,24.747-1.707,50.347-22.187,66.56c-9.387,7.68-20.48,12.8-33.28,15.36c4.267,0.853,8.533,0.853,12.8,0.853
			c17.92,0,34.133-5.973,46.08-16.213C457.185,360.107,464.865,333.653,458.892,309.76"/>
		<path style="fill:#FFA800;" d="M379.532,252.587c16.213,0,30.72-5.12,42.667-14.507c18.773-14.507,25.6-37.547,20.48-59.733
			l-24.747-110.08h-25.6L416.225,179.2c5.12,21.333-1.707,45.227-20.48,59.733"/>
		<polygon style="fill:#FFA800;" points="409.399,25.6 383.799,25.6 392.332,68.267 417.932,68.267 		"/>
	</g>
	<g>
		<path style="fill:#FFFFFF;" d="M29.665,413.867l26.453-64c3.413,8.533,8.533,17.067,16.213,23.04l-17.067,40.107
			c-13.653,39.253,8.533,81.92,47.787,89.6c-4.267,0-8.533,0.853-13.653,0.853c-1.707,0-4.267,0-5.973,0
			C40.759,499.2,15.159,453.973,29.665,413.867"/>
		<path style="fill:#FFFFFF;" d="M52.705,309.76l17.067-100.693c3.413,11.093,10.24,21.333,20.48,29.867c0,0,0,0,0.853,0.853
			l-11.947,70.827c-5.973,24.747,1.707,50.347,22.187,66.56c9.387,7.68,20.48,12.8,33.28,15.36c-4.267,0.853-8.533,0.853-12.8,0.853
			c-17.92,0-34.133-5.973-46.08-16.213C54.412,360.107,46.732,333.653,52.705,309.76"/>
		<path style="fill:#FFFFFF;" d="M132.065,252.587c-16.213,0-30.72-5.12-42.667-14.507c-18.773-14.507-25.6-37.547-20.48-59.733
			l24.747-110.08h25.6L95.372,179.2c-5.12,21.333,1.707,45.227,20.48,59.733"/>
		<polygon style="fill:#FFFFFF;" points="102.199,25.6 127.799,25.6 119.265,68.267 93.665,68.267 		"/>
	</g>
	<path style="fill:#E4667F;" d="M298.465,51.2c0,23.893-18.773,42.667-42.667,42.667S213.132,75.093,213.132,51.2
		s18.773-42.667,42.667-42.667S298.465,27.307,298.465,51.2"/>
	<path d="M422.199,512c-22.187,0-41.813-7.68-55.467-21.333C353.079,504.32,334.305,512,312.119,512
		c-23.04,0-42.667-7.68-56.32-21.333C242.145,504.32,224.225,512,202.039,512c-23.04,0-43.52-7.68-57.173-21.333
		C131.212,504.32,113.292,512,91.959,512c-24.747,0-47.787-11.947-62.293-32.427c-11.947-17.067-15.36-39.253-9.387-61.44v-0.853
		l28.16-69.12c1.707-3.413,4.267-5.12,7.68-5.12l0,0c3.413,0,6.827,1.707,7.68,5.12c1.707,4.267,3.413,7.68,5.973,11.093
		c11.947,16.213,31.573,25.6,52.053,25.6c27.307,0,49.493-14.507,58.027-37.547c0.853-3.413,4.267-5.12,7.68-5.12
		s6.827,2.56,7.68,5.12c8.533,22.187,33.28,37.547,60.587,37.547c28.16,0,51.2-14.507,59.733-37.547
		c0.853-3.413,4.267-5.12,7.68-5.12c3.413,0,6.827,2.56,7.68,5.12c8.533,23.04,31.573,37.547,58.027,37.547
		c15.36,0,29.867-5.12,40.96-14.507c7.68-5.973,12.8-13.653,16.213-23.04c0.853-3.413,4.267-5.12,7.68-5.12l0,0
		c3.413,0,6.827,1.707,7.68,5.12l26.453,63.147c8.533,23.04,5.12,47.787-7.68,68.267c-11.947,18.773-31.573,30.72-53.76,33.28
		C426.465,512,424.759,512,422.199,512z M366.732,469.333c2.56,0,5.12,1.707,6.827,3.413c10.24,14.507,27.307,22.187,48.64,22.187
		c1.707,0,3.413,0,5.12,0c16.213-1.707,31.573-11.093,40.96-25.6c10.24-15.36,11.947-35.84,5.973-52.907l-19.627-46.933
		c-3.413,5.12-7.68,9.387-12.8,13.653c-14.507,11.947-32.427,17.92-51.2,17.92c-28.16,0-52.053-11.947-66.56-33.28
		c-14.507,20.48-39.253,33.28-68.267,33.28c-29.013,0-53.76-12.8-68.267-33.28c-14.507,20.48-38.4,33.28-65.707,33.28
		c-25.6,0-49.493-11.093-64-30.72l-21.333,52.907c-4.267,17.067-1.707,34.133,6.827,46.933c11.093,16.213,29.013,25.6,48.64,25.6
		c20.48,0,35.84-7.68,46.08-22.187c3.413-4.267,11.093-4.267,13.653,0c10.24,12.8,29.013,21.333,50.347,21.333
		c20.48,0,36.693-7.68,46.933-22.187c3.413-4.267,11.093-4.267,13.653,0c10.24,13.653,28.16,22.187,49.493,22.187
		c14.507,0,34.987-3.413,47.787-22.187C361.612,471.04,364.172,469.333,366.732,469.333z"/>
	<path d="M390.625,401.067c-28.16,0-52.053-11.947-66.56-33.28c-14.507,20.48-39.253,33.28-68.267,33.28
		c-29.013,0-53.76-12.8-68.267-33.28c-14.507,20.48-38.4,33.28-66.56,33.28c-25.6,0-50.347-11.947-65.707-32.427
		c-11.947-16.213-16.213-38.4-11.947-59.733L60.385,207.36c0.853-4.267,4.267-6.827,7.68-6.827c4.267,0,7.68,2.56,8.533,5.973
		c1.707,5.973,4.267,10.24,7.68,15.36c11.093,13.653,28.16,22.187,46.933,22.187c26.453,0,47.787-11.947,55.467-30.72
		c1.707-3.413,4.267-5.12,7.68-5.12l0,0c3.413,0,6.827,1.707,7.68,5.12c7.68,19.627,26.453,30.72,52.053,30.72
		c24.747,0,43.52-11.093,52.053-30.72c1.707-3.413,4.267-5.12,7.68-5.12l0,0c3.413,0,6.827,1.707,7.68,5.12
		c7.68,18.773,29.013,30.72,55.467,30.72c13.653,0,26.453-4.267,37.547-12.8c8.533-5.973,13.653-15.36,17.067-25.6
		c0.853-4.267,4.267-5.973,8.533-5.973c4.267,0,7.68,3.413,7.68,6.827L464.865,307.2c6.827,28.16-3.413,57.173-24.747,75.093
		C427.319,395.093,409.399,401.067,390.625,401.067z M324.065,341.333c3.413,0,6.827,2.56,7.68,5.12
		c8.533,23.04,31.573,37.547,58.027,37.547c15.36,0,29.867-5.12,40.96-14.507c17.067-13.653,24.747-35.84,18.773-58.027
		l-12.8-75.947c-3.413,3.413-6.827,6.827-10.24,10.24c-13.653,10.24-29.867,16.213-47.787,16.213
		c-26.453,0-50.347-10.24-63.147-27.307c-12.8,17.92-34.133,27.307-59.733,27.307c-25.6,0-46.933-10.24-59.733-27.307
		c-13.653,17.067-36.693,27.307-63.147,27.307c-23.04,0-44.373-9.387-58.027-26.453l-13.653,77.653
		c-3.413,17.067-0.853,33.28,8.533,46.08c11.947,16.213,31.573,25.6,52.053,25.6c27.307,0,49.493-14.507,58.027-37.547
		c0.853-3.413,4.267-5.12,7.68-5.12l0,0c3.413,0,6.827,2.56,7.68,5.12c8.533,22.187,33.28,37.547,60.587,37.547
		c28.16,0,51.2-14.507,59.733-37.547C317.239,343.893,320.652,341.333,324.065,341.333z"/>
	<path d="M119.265,102.4c-2.56,0-4.267-0.853-5.973-2.56l-25.6-25.6c-3.413-3.413-3.413-8.533,0-11.947
		c3.413-3.413,8.533-3.413,11.947,0l25.6,25.6c3.413,3.413,3.413,8.533,0,11.947C123.532,101.547,121.825,102.4,119.265,102.4z"/>
	<path d="M392.332,102.4c-2.56,0-4.267-0.853-5.973-2.56c-3.413-3.413-3.413-8.533,0-11.947l25.6-25.6
		c3.413-3.413,8.533-3.413,11.947,0c3.413,3.413,3.413,8.533,0,11.947l-25.6,25.6C396.599,101.547,394.892,102.4,392.332,102.4z"/>
	<path d="M196.065,225.28c-5.12,0-8.533-3.413-8.533-8.533v-34.133c0-5.12,3.413-8.533,8.533-8.533c5.12,0,8.533,3.413,8.533,8.533
		v34.133C204.599,221.013,201.185,225.28,196.065,225.28z"/>
	<path d="M187.532,358.4c-5.12,0-8.533-3.413-8.533-8.533v-34.133c0-5.12,3.413-8.533,8.533-8.533c5.12,0,8.533,3.413,8.533,8.533
		v34.133C196.065,354.133,192.652,358.4,187.532,358.4z"/>
	<path d="M315.532,225.28c-5.12,0-8.533-3.413-8.533-8.533v-34.133c0-5.12,3.413-8.533,8.533-8.533c5.12,0,8.533,3.413,8.533,8.533
		v34.133C324.065,221.013,320.652,225.28,315.532,225.28z"/>
	<path d="M324.065,358.4c-5.12,0-8.533-3.413-8.533-8.533v-25.6c0-5.12,3.413-8.533,8.533-8.533s8.533,3.413,8.533,8.533v25.6
		C332.599,354.133,329.185,358.4,324.065,358.4z"/>
	<path d="M144.865,486.4c-5.12,0-8.533-3.413-8.533-8.533v-25.6c0-5.12,3.413-8.533,8.533-8.533c5.12,0,8.533,3.413,8.533,8.533
		v25.6C153.399,482.133,149.985,486.4,144.865,486.4z"/>
	<path d="M255.799,486.4c-5.12,0-8.533-3.413-8.533-8.533v-25.6c0-5.12,3.413-8.533,8.533-8.533c5.12,0,8.533,3.413,8.533,8.533
		v25.6C264.332,482.133,260.919,486.4,255.799,486.4z"/>
	<path d="M366.732,486.4c-5.12,0-8.533-3.413-8.533-8.533v-25.6c0-5.12,3.413-8.533,8.533-8.533c5.12,0,8.533,3.413,8.533,8.533
		v25.6C375.265,482.133,371.852,486.4,366.732,486.4z"/>
	<path d="M255.799,102.4c-28.16,0-51.2-23.04-51.2-51.2S227.639,0,255.799,0s51.2,23.04,51.2,51.2S283.959,102.4,255.799,102.4z
		 M255.799,17.067c-18.773,0-34.133,15.36-34.133,34.133s15.36,34.133,34.133,34.133c18.773,0,34.133-15.36,34.133-34.133
		S274.572,17.067,255.799,17.067z"/>
	<path d="M417.932,76.8h-122.88c-2.56,0-5.973-1.707-6.827-4.267c-1.707-2.56-1.707-5.12-0.853-7.68
		c1.707-4.267,2.56-9.387,2.56-13.653c0-7.68-2.56-14.507-6.827-20.48c-1.707-2.56-2.56-5.973-0.853-8.533
		c1.707-3.413,4.267-5.12,7.68-5.12h119.467c4.267,0,7.68,2.56,8.533,6.827l8.533,42.667c0.853,2.56,0,5.12-1.707,6.827
		C423.052,75.947,420.492,76.8,417.932,76.8z M306.145,59.733h101.547l-5.12-25.6h-98.987c2.56,5.12,3.413,11.093,3.413,17.067
		C306.999,53.76,306.999,57.173,306.145,59.733z"/>
	<path d="M216.545,76.8H93.665c-2.56,0-5.12-0.853-6.827-3.413c-1.707-1.707-1.707-4.267-1.707-6.827l8.533-42.667
		c0.853-4.267,4.267-6.827,8.533-6.827h119.467c3.413,0,5.973,1.707,7.68,5.12c1.707,2.56,0.853,5.973-0.853,8.533
		c-4.267,5.973-6.827,12.8-6.827,20.48c0,4.267,0.853,9.387,2.56,13.653c0.853,2.56,0.853,5.973-0.853,7.68
		C221.665,74.24,219.959,76.8,216.545,76.8z M103.905,59.733h101.547c-0.853-2.56-0.853-5.973-0.853-8.533
		c0-5.973,0.853-11.947,3.413-17.067h-98.987L103.905,59.733z"/>
	<path d="M379.532,261.12c-26.453,0-50.347-10.24-63.147-27.307c-12.8,17.92-34.133,27.307-59.733,27.307
		s-46.933-10.24-59.733-27.307c-13.653,17.067-36.693,27.307-63.147,27.307c-23.893,0-46.933-11.093-60.587-29.013
		c-11.093-14.507-15.36-34.133-11.093-53.76L85.132,66.56c0.853-4.267,4.267-6.827,8.533-6.827h122.88
		c3.413,0,6.827,1.707,7.68,5.12c5.973,12.8,17.92,20.48,31.573,20.48s25.6-7.68,31.573-20.48c0.853-3.413,4.267-5.12,7.68-5.12
		h122.88c4.267,0,7.68,2.56,8.533,6.827l23.893,110.933c5.973,25.6-3.413,52.053-23.04,68.267
		C413.665,256,396.599,261.12,379.532,261.12z M315.532,208.213L315.532,208.213c3.413,0,6.827,1.707,7.68,5.12
		c7.68,18.773,29.013,30.72,55.467,30.72c13.653,0,26.453-4.267,37.547-12.8c15.36-11.947,22.187-31.573,17.067-50.347L411.105,76.8
		H300.172c-9.387,15.36-25.6,25.6-44.373,25.6c-18.773,0-34.987-10.24-44.373-25.6H100.492L78.305,182.613
		c-3.413,14.507-0.853,29.013,7.68,40.107c11.093,13.653,28.16,22.187,46.933,22.187c26.453,0,47.787-11.947,55.467-30.72
		c1.707-3.413,4.267-5.12,7.68-5.12l0,0c3.413,0,6.827,1.707,7.68,5.12c7.68,19.627,26.453,30.72,52.053,30.72
		c24.747,0,43.52-11.093,52.053-30.72C308.705,209.92,312.119,208.213,315.532,208.213z"/>
</g>
</svg>