<?xml version="1.0" encoding="iso-8859-1"?>
<!-- Uploaded to: SVG Repo, www.svgrepo.com, Generator: SVG Repo Mixer Tools -->
<svg height="800px" width="800px" version="1.1" id="Layer_1" xmlns="http://www.w3.org/2000/svg" xmlns:xlink="http://www.w3.org/1999/xlink" 
	 viewBox="0 0 512.001 512.001" xml:space="preserve">
<path style="fill:#49CEAB;" d="M502.808,473.72H276.064l-20.067-140.47L235.93,473.72H9.183c0-145.607,22.301-286.92,37.74-367.336
	c8.174-42.596,14.435-68.107,14.435-68.107h389.289c0,0,6.261,25.512,14.435,68.107C480.521,186.801,502.808,328.113,502.808,473.72
	z"/>
<path style="fill:#F24141;" d="M465.083,106.385H46.923c8.174-42.596,14.435-68.107,14.435-68.107h389.289
	C450.647,38.277,456.909,63.789,465.083,106.385z"/>
<path style="fill:#F2D546;" d="M489.682,265.156H22.318c7.424-62.743,16.709-117.527,24.361-157.527h418.627
	C472.959,147.63,482.256,202.412,489.682,265.156z"/>
<path d="M508.065,362.767c-0.344-5.061-4.72-8.886-9.791-8.54c-5.061,0.345-8.886,4.728-8.54,9.791
	c1.621,23.771,2.728,47.145,3.337,69.899h-44.154c-5.074,0-9.187,4.113-9.187,9.187c0,5.074,4.113,9.187,9.187,9.187h44.548
	c0.061,4.105,0.105,8.185,0.131,12.241H284.034l-1.748-12.241h136.008c5.074,0,9.187-4.113,9.187-9.187
	c0-5.074-4.113-9.187-9.187-9.187H279.661l-14.566-101.961c-0.647-4.526-4.522-7.887-9.095-7.887s-8.448,3.362-9.095,7.887
	L232.34,433.917H83.294c-5.074,0-9.187,4.113-9.187,9.187c0,5.074,4.113,9.187,9.187,9.187h146.421l-1.748,12.241H18.403
	c0.026-4.057,0.085-8.148,0.143-12.241H52.67c5.074,0,9.187-4.113,9.187-9.187c0-5.074-4.113-9.187-9.187-9.187H18.917
	c1.341-50.784,5.212-104.135,11.567-159.573h120.79c5.074,0,9.187-4.113,9.187-9.187c0-5.074-4.113-9.187-9.187-9.187H32.673
	c2.822-22.857,6.046-46.044,9.697-69.549c0.779-5.014-2.654-9.709-7.668-10.488c-5.012-0.78-9.709,2.654-10.488,7.668
	C8.146,287.061,0,384.671,0,473.717c0,5.074,4.113,9.187,9.187,9.187h226.747c4.571,0,8.448-3.362,9.095-7.887l10.972-76.801
	l10.972,76.801c0.647,4.526,4.522,7.887,9.095,7.887h226.747c5.074,0,9.187-4.113,9.187-9.187
	C512,438.388,510.676,401.059,508.065,362.767z"/>
<path d="M37.477,158.925c5,0.861,9.749-2.503,10.607-7.503c2.122-12.382,4.213-23.952,6.214-34.605h310.108
	c5.074,0,9.187-4.113,9.187-9.187c0-5.074-4.113-9.187-9.187-9.187H57.833c4.765-24.174,8.702-41.856,10.803-50.972h374.727
	c2.092,9.105,6.014,26.756,10.778,50.972h-59.11c-5.074,0-9.187,4.113-9.187,9.187c0,5.074,4.113,9.187,9.187,9.187h62.642
	c6.911,36.837,14.934,84.848,21.636,139.155H181.897c-5.074,0-9.187,4.113-9.187,9.187c0,5.074,4.113,9.187,9.187,9.187h299.596
	c2.02,17.626,3.881,35.823,5.502,54.449c0.416,4.785,4.428,8.391,9.142,8.391c0.267,0,0.536-0.012,0.808-0.036
	c5.054-0.44,8.795-4.895,8.355-9.95c-13.967-160.39-45.42-289.816-45.735-291.105c-1.008-4.108-4.691-6.998-8.922-6.998H61.36
	c-4.231,0-7.914,2.89-8.922,6.998c-0.107,0.437-10.864,44.529-22.463,112.224C29.117,153.32,32.477,158.069,37.477,158.925z"/>
<path d="M122.356,182.119c2.705,1.191,6.722,4.208,8.533,11.813c1.175,4.935,6.127,7.985,11.065,6.809
	c4.935-1.175,7.984-6.128,6.809-11.065c-3.987-16.746-14.733-22.987-21.707-25.306c-5.709-12.265-16.929-18.974-18.347-19.785
	c-4.405-2.517-10.017-0.987-12.535,3.419c-2.517,4.406-0.987,10.017,3.419,12.535c0.042,0.025,1.994,1.207,4.335,3.294
	c-15.257,1.624-23.465,5.069-23.908,5.259c-4.663,1.999-6.824,7.4-4.825,12.063c1.493,3.484,4.884,5.57,8.448,5.57
	c1.208,0,2.435-0.24,3.615-0.745c0.061-0.026,3.712-1.503,10.789-2.778c-12.07,20.75-11.162,45.123-11.1,46.48
	c0.224,4.925,4.286,8.759,9.169,8.759c0.134,0,0.268-0.002,0.404-0.009c5.06-0.218,8.99-4.503,8.783-9.564
	C105.29,228.541,104.266,197.786,122.356,182.119z"/>
<path d="M148.833,149.428c-0.768-3.685-3.712-6.604-7.438-7.253c-3.789-0.66-7.712,1.197-9.581,4.562
	c-1.861,3.347-1.432,7.58,1.058,10.485c2.548,2.973,6.863,3.988,10.474,2.484C147.314,158.054,149.717,153.665,148.833,149.428z"/>
<path d="M171.735,181.154c1.493,3.484,4.884,5.57,8.448,5.57c1.208,0,2.435-0.24,3.615-0.745c0.061-0.026,3.712-1.503,10.789-2.778
	c-12.07,20.75-11.162,45.123-11.1,46.48c0.224,4.925,4.286,8.759,9.169,8.759c0.133,0,0.268-0.002,0.404-0.009
	c5.06-0.218,8.99-4.503,8.783-9.564c-0.013-0.326-1.038-31.08,17.052-46.747c2.705,1.191,6.722,4.208,8.533,11.813
	c1.175,4.935,6.126,7.985,11.065,6.809c4.935-1.175,7.984-6.128,6.809-11.065c-3.987-16.746-14.733-22.987-21.707-25.306
	c-5.709-12.265-16.929-18.974-18.347-19.785c-4.404-2.517-10.016-0.987-12.535,3.419c-2.517,4.405-0.987,10.017,3.419,12.535
	c0.042,0.024,1.994,1.207,4.335,3.294c-15.257,1.624-23.465,5.069-23.908,5.259C171.897,171.088,169.736,176.49,171.735,181.154z"/>
<path d="M238.814,160.07c3.634-1.009,6.31-4.197,6.694-7.942c0.385-3.746-1.663-7.416-5.014-9.102
	c-3.615-1.82-8.119-1.012-10.871,1.961c-2.854,3.084-3.204,7.837-0.9,11.339C230.935,159.567,235.016,161.125,238.814,160.07z"/>
<path d="M268.276,181.154c1.493,3.484,4.884,5.57,8.448,5.57c1.208,0,2.435-0.24,3.615-0.745c0.061-0.026,3.712-1.503,10.789-2.778
	c-12.07,20.75-11.162,45.123-11.1,46.48c0.224,4.925,4.286,8.759,9.169,8.759c0.134,0,0.268-0.002,0.404-0.009
	c5.06-0.218,8.99-4.503,8.783-9.564c-0.013-0.326-1.038-31.08,17.052-46.747c2.705,1.191,6.722,4.208,8.533,11.813
	c1.175,4.935,6.128,7.985,11.065,6.809c4.935-1.175,7.984-6.128,6.809-11.065c-3.987-16.746-14.733-22.987-21.707-25.306
	c-5.709-12.265-16.929-18.974-18.347-19.785c-4.404-2.517-10.016-0.987-12.535,3.419c-2.517,4.405-0.987,10.017,3.419,12.535
	c0.042,0.024,1.994,1.207,4.335,3.294c-15.257,1.624-23.465,5.069-23.908,5.259C268.437,171.088,266.277,176.49,268.276,181.154z"/>
<path d="M334.705,160.232c3.84-0.801,6.819-3.966,7.314-7.867c0.517-4.075-1.824-8.044-5.599-9.626
	c-7.471-3.13-15.174,4.765-11.923,12.171C326.204,158.802,330.528,161.084,334.705,160.232z"/>
<path d="M364.817,181.154c1.493,3.484,4.884,5.57,8.448,5.57c1.208,0,2.435-0.24,3.615-0.745c0.061-0.026,3.712-1.503,10.789-2.778
	c-12.07,20.75-11.162,45.123-11.1,46.48c0.224,4.925,4.286,8.759,9.169,8.759c0.134,0,0.268-0.002,0.404-0.009
	c5.06-0.218,8.99-4.503,8.783-9.564c-0.013-0.326-1.038-31.08,17.052-46.747c2.705,1.191,6.722,4.208,8.533,11.813
	c1.175,4.935,6.127,7.985,11.065,6.809c4.935-1.175,7.984-6.128,6.809-11.065c-3.987-16.746-14.733-22.987-21.707-25.306
	c-5.709-12.265-16.929-18.974-18.347-19.785c-4.405-2.517-10.017-0.987-12.535,3.419c-2.517,4.406-0.987,10.017,3.419,12.535
	c0.042,0.024,1.994,1.207,4.335,3.294c-15.257,1.624-23.465,5.069-23.908,5.259C364.978,171.088,362.818,176.49,364.817,181.154z"/>
<path d="M438.594,152.128c0.86-8.222-9.247-13.194-15.317-7.711c-3.342,3.019-3.932,8.164-1.467,11.908
	C426.493,163.439,437.723,160.452,438.594,152.128z"/>
<path d="M232.128,67.407c-3.709,0.695-6.634,3.791-7.258,7.486c-0.679,4.014,1.467,8.072,5.132,9.815
	c3.471,1.651,7.702,0.903,10.418-1.806c2.744-2.738,3.457-7.051,1.757-10.527C240.377,68.69,236.158,66.581,232.128,67.407z"/>
<path d="M275.836,67.502c-3.735,0.932-6.514,4.186-6.901,8.007c-0.845,8.322,9.496,13.287,15.505,7.519
	c3.158-3.032,3.723-8.077,1.268-11.714C283.634,68.09,279.523,66.582,275.836,67.502z"/>
</svg>