<?xml version="1.0" encoding="UTF-8"?>
<svg viewBox="0 0 48 48" xmlns="http://www.w3.org/2000/svg">
 <defs>
  <linearGradient id="c" x1="-28.969" x2="-37.197" y1="-25.327" y2="-9.559" gradientUnits="userSpaceOnUse">
   <stop stop-color="#fff9c6" offset="0"/>
   <stop stop-color="#fff28c" offset=".54167"/>
   <stop stop-color="#ffea85" offset="1"/>
  </linearGradient>
  <radialGradient id="b" cx="-33.519" cy="-22.113" r="9.5" gradientTransform="matrix(.48774 1.2924 -1.1027 .49724 -41.774 32.415)" gradientUnits="userSpaceOnUse">
   <stop stop-color="#fff7c2" stop-opacity=".6383" offset="0"/>
   <stop stop-color="#fcaf3e" stop-opacity=".18349" offset=".59394"/>
   <stop stop-color="#fcaf3e" stop-opacity=".50459" offset=".83851"/>
   <stop stop-color="#fcaf3e" offset="1"/>
  </radialGradient>
  <radialGradient id="a" cx="24" cy="23.382" r="19.142" gradientTransform="matrix(1.0067 2.2353e-16 -2.2372e-16 1.0075 -.16082 .42698)" gradientUnits="userSpaceOnUse">
   <stop stop-color="#fff" stop-opacity="0" offset="0"/>
   <stop stop-color="#fff" stop-opacity="0" offset=".75"/>
   <stop stop-color="#fff" offset="1"/>
  </radialGradient>
 </defs>
 <g opacity=".7" stroke-linecap="square">
  <path d="m24 2.5-2.375 6.6875c0.77403-0.12337 1.5664-0.1875 2.375-0.1875s1.601 0.06413 2.375 0.1875l-2.375-6.6875zm-15.188 6.2812 3.0312 6.4375c0.93528-1.2902 2.0848-2.4397 3.375-3.375l-6.4062-3.0625zm30.406 0-6.4375 3.0625c1.2902 0.93528 2.4397 2.0848 3.375 3.375l3.0625-6.4375zm-30.031 12.812-6.6875 2.375 6.6875 2.375c-0.12016-0.76423-0.1875-1.5459-0.1875-2.3438 0-0.81938 0.06089-1.6224 0.1875-2.4062zm29.625 0.03125c0.12337 0.77403 0.1875 1.5664 0.1875 2.375s-0.06413 1.601-0.1875 2.375l6.6875-2.375-6.6875-2.375zm-26.969 11.156-3.0312 6.4062 6.4062-3.0312c-1.2902-0.93528-2.4397-2.0848-3.375-3.375zm24.312 0c-0.92646 1.278-2.0686 2.4136-3.3438 3.3438l6.4062 3.0625-3.0625-6.4062zm-14.531 6.0312 2.375 6.6875 2.375-6.6875c-0.77403 0.12337-1.5664 0.1875-2.375 0.1875s-1.601-0.06413-2.375-0.1875z" fill="#fce94f" stroke="#fcaf3e" stroke-width=".73733"/>
  <path d="m24,5.25-1.34375,3.8125c.44264-.03935.89094-.0625 1.34375-.0625s.90111.02315 1.34375.0625l-1.34375-3.8125zm-13.21875,5.5 1.71875,3.625c.57154-.68091 1.224-1.33625 1.90625-1.90625l-3.625-1.71875zm26.46875,0-3.625,1.71875c.67968.56944 1.33681,1.22658 1.90625,1.90625l1.71875-3.625zm-28.1875,11.875-3.78125,1.34375 3.78125,1.34375c-.03752-.43235-.0625-.87047-.0625-1.3125 0-.46359.02127-.92209.0625-1.375zm29.875.03125c.03935.44264.0625.89094.0625,1.34375s-.02315.90111-.0625,1.34375l3.78125-1.34375-3.78125-1.34375zm-3.40625,10.9375c-.57296.68579-1.22127,1.36361-1.90625,1.9375l3.625,1.71875-1.71875-3.65625zm-23.03125.03125-1.71875,3.59375 3.59375-1.71875c-.67207-.56412-1.31088-1.20293-1.875-1.875zm10.15625,5.3125 1.34375,3.78125 1.34375-3.78125c-.44264.03935-.89094.0625-1.34375.0625s-.90111-.02315-1.34375-.0625z" fill="none" stroke="url(#a)" stroke-width=".84646"/>
 </g>
 <path transform="matrix(.77806 -1.0613 1.0613 .77806 67.48 3.6413)" d="m-22.5-17.5a9.5 9.5 0 1 1 -19 0 9.5 9.5 0 1 1 19 0z" fill="#ffee54" stroke="#fcaf3e" stroke-linecap="square" stroke-width=".75991"/>
 <path transform="matrix(1.2443 -.16771 .21664 1.2518 67.616 40.527)" d="m-22.5-17.5a9.5 9.5 0 1 1 -19 0 9.5 9.5 0 1 1 19 0z" fill="url(#b)"/>
 <path transform="matrix(.71579 -.97635 .97635 .71579 64 5.2695)" d="m-22.5-17.5a9.5 9.5 0 1 1 -19 0 9.5 9.5 0 1 1 19 0z" fill="none" stroke="url(#c)" stroke-linecap="square" stroke-width=".82602"/>
</svg>
