<?xml version="1.0" encoding="iso-8859-1"?>
<!-- Uploaded to: SVG Repo, www.svgrepo.com, Generator: SVG Repo Mixer Tools -->
<svg height="800px" width="800px" version="1.1" id="Layer_1" xmlns="http://www.w3.org/2000/svg" xmlns:xlink="http://www.w3.org/1999/xlink" 
	 viewBox="0 0 511.996 511.996" xml:space="preserve">
<polygon style="fill:#DE5E88;" points="324.122,14.359 255.998,46.353 187.875,14.359 187.875,104.165 255.998,72.173 
	324.122,104.165 "/>
<path d="M324.121,118.527c-2.078,0-4.162-0.45-6.104-1.362L255.998,88.04l-62.019,29.126c-4.452,2.088-9.658,1.756-13.805-0.876
	c-4.149-2.635-6.662-7.21-6.662-12.123V14.362c0-4.915,2.513-9.487,6.662-12.123c4.148-2.633,9.357-2.964,13.805-0.876
	l62.019,29.126l62.019-29.126c4.449-2.091,9.658-1.758,13.805,0.876c4.149,2.635,6.663,7.21,6.663,12.123v89.805
	c0,4.915-2.513,9.487-6.663,12.123C329.483,117.773,326.808,118.527,324.121,118.527z M262.296,59.261l47.465,22.291V36.972
	L262.296,59.261z M202.237,36.972v44.582l47.465-22.291L202.237,36.972z"/>
<g>
	<path style="fill:#BBDCE3;" d="M97.174,93.782l41.328-4.693L255.94,328.195l-0.158,93.368l-51.572,76.073h-84.946l0.451-316.259
		L74.433,460.985l-53.564,1.996l48.387-341.005C71.43,106.654,82.993,94.977,97.174,93.782z"/>
	<path style="fill:#BBDCE3;" d="M414.823,93.782l-41.328-4.693L256.057,328.194l0.158,93.368l51.572,76.073h84.946l-0.451-316.259
		l45.283,279.609l53.564,1.996l-48.388-341.004C440.567,106.654,429.004,94.977,414.823,93.782z"/>
</g>
<path d="M505.346,460.962L456.959,119.96c-3.119-21.992-19.84-38.602-40.703-40.47l-41.141-4.673
	c-6.039-0.688-11.837,2.495-14.511,7.939L255.998,295.733L151.392,82.757c-2.673-5.447-8.474-8.614-14.511-7.939L95.739,79.49
	c-20.859,1.87-37.581,18.477-40.703,40.469L6.65,460.962c-0.599,4.214,0.702,8.472,3.552,11.635
	c2.847,3.16,6.964,4.895,11.202,4.737l53.564-1.996c6.841-0.256,12.548-5.3,13.642-12.057l16.487-101.803l-0.195,136.135
	c-0.006,3.813,1.505,7.471,4.199,10.17c2.694,2.697,6.351,4.214,10.162,4.214h84.946c4.762,0,9.216-2.361,11.887-6.303
	l39.899-58.855l39.9,58.855c2.673,3.942,7.125,6.303,11.887,6.303h84.945c3.812,0,7.468-1.517,10.162-4.214
	c2.694-2.699,4.205-6.357,4.199-10.17l-0.194-136.135l16.486,101.803c1.094,6.756,6.802,11.801,13.642,12.057l53.564,1.996
	c4.199,0.171,8.353-1.577,11.202-4.737C504.644,469.436,505.945,465.176,505.346,460.962z M241.428,417.141l-44.831,66.132h-62.95
	l0.431-301.875c0.011-7.49-5.735-13.73-13.2-14.335c-7.474-0.607-14.142,4.626-15.339,12.018L62.137,447.074l-24.635,0.918
	l45.972-323.997c1.239-8.728,7.369-15.267,14.906-15.901c0.139-0.011,0.276-0.026,0.415-0.04l31.274-3.553l111.503,227.018
	L241.428,417.141z M449.86,447.073L406.459,179.08c-1.196-7.392-7.876-12.617-15.338-12.018c-7.465,0.606-13.212,6.846-13.2,14.335
	l0.429,301.875h-62.948l-44.832-66.132l-0.146-85.621L381.926,104.5l31.276,3.553c0.139,0.016,0.276,0.03,0.415,0.04
	c7.537,0.635,13.667,7.174,14.905,15.901l45.974,323.994L449.86,447.073z"/>
<path d="M167.672,452.659c-7.931,0-14.362-6.431-14.362-14.362V326.281c0-7.931,6.431-14.362,14.362-14.362
	c7.931,0,14.362,6.431,14.362,14.362v112.017C182.034,446.23,175.604,452.659,167.672,452.659z"/>
<path d="M167.664,297.795c-0.932,0-1.867-0.101-2.799-0.287c-0.921-0.187-1.825-0.46-2.686-0.819
	c-0.863-0.359-1.696-0.804-2.485-1.321c-0.776-0.531-1.522-1.12-2.183-1.781c-2.671-2.686-4.209-6.375-4.209-10.152
	c0-0.948,0.101-1.883,0.287-2.815c0.187-0.921,0.46-1.825,0.819-2.686c0.359-0.863,0.804-1.696,1.321-2.485
	c0.517-0.776,1.12-1.522,1.781-2.183c0.661-0.661,1.406-1.264,2.183-1.781c0.79-0.517,1.623-0.962,2.485-1.321
	c0.862-0.359,1.765-0.632,2.686-0.819c1.853-0.373,3.763-0.373,5.614,0c0.921,0.187,1.825,0.46,2.686,0.819
	c0.863,0.359,1.696,0.804,2.485,1.321c0.776,0.517,1.508,1.12,2.183,1.781c0.661,0.661,1.249,1.406,1.781,2.183
	c0.517,0.79,0.962,1.623,1.321,2.485c0.359,0.862,0.632,1.765,0.819,2.686c0.187,0.932,0.271,1.867,0.271,2.815
	c0,3.777-1.522,7.467-4.194,10.152c-0.675,0.661-1.406,1.249-2.183,1.781c-0.79,0.517-1.623,0.962-2.485,1.321
	c-0.862,0.359-1.765,0.632-2.686,0.819C169.546,297.695,168.613,297.795,167.664,297.795z"/>
<path d="M344.323,409.805c-7.931,0-14.362-6.431-14.362-14.362V283.426c0-7.931,6.431-14.362,14.362-14.362
	s14.362,6.431,14.362,14.362v112.017C358.685,403.375,352.255,409.805,344.323,409.805z"/>
<path d="M344.331,452.659c-0.948,0-1.883-0.101-2.815-0.287c-0.921-0.172-1.825-0.46-2.686-0.819
	c-0.863-0.359-1.696-0.804-2.485-1.307c-0.776-0.531-1.522-1.135-2.183-1.795c-0.661-0.661-1.264-1.393-1.781-2.183
	c-0.517-0.776-0.962-1.609-1.321-2.485c-0.359-0.862-0.632-1.765-0.819-2.686c-0.187-0.919-0.287-1.867-0.287-2.799
	c0-0.934,0.101-1.883,0.287-2.801c0.187-0.921,0.46-1.825,0.819-2.7c0.359-0.863,0.804-1.696,1.321-2.472
	c0.517-0.79,1.12-1.522,1.781-2.183c0.661-0.661,1.406-1.264,2.183-1.781c0.79-0.531,1.623-0.962,2.485-1.321
	c0.862-0.359,1.765-0.646,2.686-0.819c1.853-0.388,3.763-0.388,5.614,0c0.921,0.172,1.825,0.46,2.686,0.819
	c0.863,0.359,1.696,0.79,2.485,1.321c0.776,0.517,1.522,1.12,2.183,1.781c0.661,0.661,1.264,1.393,1.781,2.183
	c0.517,0.776,0.962,1.609,1.321,2.472c0.359,0.875,0.632,1.779,0.819,2.7c0.187,0.919,0.287,1.867,0.287,2.801
	c0,0.932-0.101,1.881-0.287,2.799c-0.187,0.921-0.46,1.825-0.819,2.686c-0.359,0.876-0.804,1.709-1.321,2.485
	c-0.531,0.79-1.12,1.522-1.781,2.183c-0.661,0.661-1.406,1.264-2.183,1.795c-0.79,0.504-1.623,0.948-2.485,1.307
	c-0.862,0.359-1.765,0.646-2.686,0.819C346.198,452.559,345.264,452.659,344.331,452.659z"/>
</svg>