<?xml version="1.0" encoding="iso-8859-1"?>
<!-- Uploaded to: SVG Repo, www.svgrepo.com, Generator: SVG Repo Mixer Tools -->
<svg height="800px" width="800px" version="1.1" id="Layer_1" xmlns="http://www.w3.org/2000/svg" xmlns:xlink="http://www.w3.org/1999/xlink" 
	 viewBox="0 0 512 512" xml:space="preserve">
<g>
	<path style="fill:#FF6465;" d="M151.592,461.009h208.817l0.405-2.997c13.29-99.723,14.778-232.96,14.823-237.221
		c-0.002,0.163-0.005,0.511-0.012,1.056c-4.886-14.089-56.574-25.174-119.624-25.174s-114.739,11.086-119.624,25.175
		c0.165,13.418,2.032,140.194,14.797,236.062L151.592,461.009z"/>
	<path style="fill:#FF6465;" d="M136.376,221.849L136.376,221.849c-0.005-0.497-0.01-0.839-0.012-1.018
		C136.367,221.006,136.37,221.337,136.376,221.849z"/>
	<path style="fill:#FF6465;" d="M94.488,111.356c-0.526,0.302-1.051,0.604-1.576,0.909c-3.556,2.067-7.084,4.228-10.561,6.492
		c-42.914,27.928-47.478,247.587-47.429,342.07v0.182l0,0l30.811,19.891l30.811-19.891l0,0
		c3.618-57.447,13.51-161.403,39.819-240.328L94.488,111.356z"/>
</g>
<path style="fill:#FF8080;" d="M417.512,111.356L417.512,111.356C365.371,81.508,307.74,72.079,307.74,72.079l6.313-63.886H197.949
	l6.313,63.884c0,0-57.632,9.428-109.772,39.277l0,0c-1.44,56.867,41.874,109.326,41.874,109.326l0,0c0,0.002,0.004,0.4,0.013,1.167
	c4.885-14.089,56.574-25.175,119.624-25.175s114.739,11.086,119.624,25.174c0.01-0.768,0.013-1.167,0.013-1.167l0,0l0,0
	C375.638,220.681,418.952,168.223,417.512,111.356z"/>
<path style="fill:#4D4E5C;" d="M34.923,461.009c0.015,26.251,0.387,42.796,0.387,42.796h59.238c0,0,0.343-16.544,1.997-42.796
	H34.923z"/>
<path style="opacity:0.1;enable-background:new    ;" d="M240.475,51.601l-4.288-43.408h-38.238l6.313,63.884
	c0,0-57.632,9.428-109.772,39.277c-0.525,0.302-1.051,0.604-1.576,0.909c-3.556,2.067-7.084,4.228-10.561,6.492
	c-42.914,27.928-47.478,247.587-47.429,342.07v0.182c0.015,26.251,0.387,42.796,0.387,42.796h38.238c0,0-0.371-16.545-0.387-42.796
	v-0.182c-0.05-94.485,4.515-314.142,47.429-342.07c3.477-2.264,7.005-4.425,10.561-6.492c0.524-0.305,1.05-0.609,1.576-0.909
	c33.398-19.119,69.05-29.86,90.365-35.111C234.206,73.505,241.601,62.994,240.475,51.601z"/>
<path style="fill:#FF6465;" d="M417.512,111.356c0.525,0.302,1.051,0.604,1.576,0.909c3.556,2.067,7.084,4.228,10.561,6.492
	c42.914,27.928,47.478,247.587,47.429,342.07v0.182l0,0l-30.811,19.891l-30.811-19.891l0,0
	c-3.618-57.447-13.51-161.403-39.819-240.328L417.512,111.356z"/>
<g>
	<path style="fill:#4D4E5C;" d="M477.077,461.009c-0.015,26.251-0.387,42.796-0.387,42.796h-59.238c0,0-0.343-16.544-1.997-42.796
		H477.077z"/>
	<path style="fill:#4D4E5C;" d="M151.592,461.009c1.93,14.134,4.103,27.553,6.55,39.783h195.718
		c2.446-12.23,4.618-25.649,6.55-39.783H151.592z"/>
</g>
<path d="M417.454,512h59.238c4.454,0,8.092-3.557,8.192-8.01c0.003-0.166,0.373-16.936,0.388-42.975c0-0.138-0.013-0.273-0.02-0.41
	c0.005-53.993-1.486-148.361-10.567-224.519c-0.536-4.493-4.614-7.707-9.106-7.167c-4.493,0.535-7.701,4.614-7.166,9.106
	c8.569,71.86,10.306,160.279,10.443,214.791h-45.777c-4.005-58.197-13.996-155.192-38.296-230.529
	c9.009-11.916,36.266-51.313,40.42-96.646c6.485,4.239,18.809,20.269,28.661,79.974c0.662,4.014,4.136,6.861,8.075,6.861
	c0.444,0,0.893-0.036,1.344-0.11c4.465-0.737,7.487-4.953,6.751-9.419c-8.42-51.025-20.167-80.81-35.915-91.057
	c-45.439-29.572-98.113-42.467-117.488-46.461L322.206,9c0.227-2.302-0.529-4.593-2.082-6.307C318.571,0.979,316.366,0,314.052,0
	H197.949c-2.313,0-4.519,0.979-6.072,2.692c-1.552,1.714-2.31,4.005-2.082,6.307l5.577,56.441
	c-7.516,1.562-20.101,4.484-35.422,9.223c-4.324,1.338-6.744,5.927-5.407,10.25c1.337,4.322,5.927,6.743,10.249,5.406
	c20.997-6.495,36.895-9.465,40.172-10.046h42.844V188.55c-29.577,0.447-57.195,3.296-78.485,8.15
	c-14.337,3.269-24.884,7.216-31.765,11.908c-10.622-15-34.103-52.569-34.886-92.443c8.967-4.921,18.602-9.542,28.812-13.809
	c4.176-1.746,6.145-6.544,4.401-10.721c-1.746-4.174-6.545-6.144-10.72-4.4c-12.259,5.124-23.742,10.755-34.338,16.794
	c-0.269,0.134-0.53,0.281-0.781,0.442c-4.196,2.41-8.265,4.879-12.163,7.416c-24.465,15.921-34.525,75.682-39.965,119.25
	c-5.858,46.919-9.467,106.236-10.725,176.3c-0.081,4.525,3.521,8.259,8.045,8.34c0.05,0.001,0.101,0.001,0.15,0.001
	c4.457,0,8.11-3.573,8.189-8.046c1.23-68.508,4.897-128.871,10.602-174.564c10.195-81.65,24.802-102.421,32.619-107.529
	c4.154,45.331,31.409,84.727,40.418,96.644c-24.298,75.338-34.289,172.333-38.296,230.53H43.125c0.009-3.968,0.025-8.099,0.054-12.4
	c0.029-4.525-3.615-8.217-8.14-8.247c-0.019,0-0.036,0-0.055,0c-4.5,0-8.163,3.634-8.193,8.14
	c-0.048,7.385-0.064,14.306-0.062,20.705c0.014,23.942,0.328,40.035,0.381,42.603c0.001,0.043,0.001,0.07,0.002,0.106
	c0.001,0.059,0.002,0.104,0.003,0.172c0.001,0.051,0.002,0.087,0.002,0.094c0.099,4.453,3.737,8.01,8.192,8.01h59.238
	c4.46,0,8.1-3.566,8.193-8.024c0-0.017,0.005-0.245,0.015-0.649c0.248-9.63,3.705-125.611,26.806-227.088
	c1.744,49.851,5.586,124.39,13.886,185.545c0.011,0.111,0.012,0.223,0.027,0.333c1.842,13.482,3.964,26.937,6.633,40.281
	c0.766,3.83,4.129,6.587,8.034,6.587h195.718c3.906,0,7.268-2.756,8.034-6.587c2.669-13.343,4.804-26.798,6.633-40.281
	c0.015-0.111,0.016-0.223,0.027-0.333c8.3-61.155,12.142-135.695,13.885-185.545c23.979,105.333,26.792,226.314,26.821,227.737
	c0.035,1.672,0.569,3.219,1.457,4.498C412.2,510.606,414.667,512,417.454,512z M468.852,469.203
	c-0.036,11.399-0.133,20.456-0.217,26.408H425.4c-0.214-5.973-0.595-15.039-1.243-26.408H468.852z M86.602,495.611H43.363
	c-0.086-5.961-0.188-15.03-0.228-26.408h44.709C87.196,480.571,86.816,489.639,86.602,495.611z M247.807,492.598
	c0,0-82.898,0-82.9,0c-0.87-0.007-1.881-9.505-2.004-10.324c-0.11-0.737-1.579-13.071-1.864-13.071c0.001,0,86.766,0,86.766,0
	v23.395H247.807z M247.807,452.815H158.78c-11.661-90.713-13.874-208.013-14.182-228.947c2.112-2.352,10.474-7.536,32.49-12.086
	c19.552-4.041,44.409-6.429,70.717-6.842v247.876H247.807z M264.194,16.388h40.814l-4.693,47.498h-36.122V16.388H264.194z
	 M247.807,63.886h-36.122l-4.692-47.498h40.814V63.886z M350.58,471.715c-1.064,6.978-2.198,13.943-3.487,20.883h-82.898v-23.395
	h86.766C350.835,470.04,350.708,470.877,350.58,471.715z M353.22,452.815h-89.025V204.939c26.309,0.413,51.165,2.801,70.717,6.842
	c22.016,4.549,30.378,9.734,32.49,12.086C367.094,244.803,364.881,362.101,353.22,452.815z M374.444,208.608
	c-6.881-4.692-17.427-8.64-31.765-11.908c-21.29-4.854-48.907-7.703-78.485-8.15V80.273h42.841
	c6.116,1.089,56.029,10.535,102.295,35.894C408.545,156.041,385.065,193.608,374.444,208.608z"/>
<path d="M172.606,389.29c1.591,2.302,4.148,3.539,6.751,3.539c1.605,0,3.227-0.471,4.648-1.452
	c28.944-19.984,33.285-54.29,33.456-55.741c0.528-4.484-2.674-8.537-7.157-9.08c-4.48-0.524-8.56,2.66-9.116,7.14
	c-0.035,0.284-3.774,28.508-26.494,44.195C170.97,380.463,170.035,385.566,172.606,389.29z"/>
<path d="M337.307,377.892c-22.631-15.627-26.43-43.692-26.493-44.19c-0.539-4.484-4.599-7.695-9.093-7.16
	c-4.495,0.528-7.709,4.601-7.18,9.094c0.17,1.451,4.513,35.757,33.456,55.741c1.421,0.981,3.043,1.452,4.648,1.452
	c2.601,0,5.16-1.237,6.751-3.539C341.966,385.566,341.032,380.463,337.307,377.892z"/>
</svg>