<?xml version="1.0" encoding="iso-8859-1"?>
<!-- Uploaded to: SVG Repo, www.svgrepo.com, Generator: SVG Repo Mixer Tools -->
<svg version="1.1" id="Layer_1" xmlns="http://www.w3.org/2000/svg" xmlns:xlink="http://www.w3.org/1999/xlink" 
	 viewBox="0 0 512 512" xml:space="preserve">
<path style="fill:#FAC51C;" d="M500.918,179.065v319.446H11.082V179.065c0-33.524,11.47-66.05,32.504-92.16l23.738-29.457
	c20.17-25.035,49.493-40.727,81.177-43.808c3.812-0.366,7.658-0.554,11.526-0.554h191.945c3.868,0,7.713,0.188,11.526,0.554
	c31.684,3.081,61.008,18.773,81.177,43.808l23.738,29.457C489.448,113.015,500.918,145.541,500.918,179.065z"/>
<g>
	<rect x="233.835" y="127.258" style="fill:#EFEFEF;" width="44.329" height="371.255"/>
	<rect x="103.065" y="271.039" style="fill:#EFEFEF;" width="130.771" height="44.329"/>
	<rect x="278.164" y="271.039" style="fill:#EFEFEF;" width="130.771" height="44.329"/>
</g>
<g>
	<rect x="103.065" y="404.292" style="fill:#FBA026;" width="130.771" height="94.221"/>
	<rect x="278.164" y="404.292" style="fill:#FBA026;" width="130.771" height="94.221"/>
</g>
<path style="fill:#EFEFEF;" d="M363.498,13.64v69.641c0,34.178-19.505,63.878-47.975,78.54l-34.898-34.898
	c-1.773,0.222-3.591,0.332-5.43,0.332h-38.389c-1.84,0-3.657-0.111-5.43-0.332l-34.898,34.898
	c-28.47-14.662-47.975-44.362-47.975-78.54V13.64c3.812-0.366,7.658-0.554,11.526-0.554h191.945
	C355.84,13.086,359.686,13.275,363.498,13.64z"/>
<path style="fill:#FBA026;" d="M319.169,13.086v70.195c0,22.453-16.812,40.971-38.544,43.642c-1.773,0.222-3.591,0.332-5.43,0.332
	h-38.389c-1.84,0-3.657-0.111-5.43-0.332c-21.732-2.671-38.544-21.189-38.544-43.642V13.086
	C192.831,13.086,319.169,13.086,319.169,13.086z"/>
<g>
	<path style="fill:#231F20;" d="M477.042,79.951l-23.737-29.456c-21.809-27.067-54.151-44.522-88.749-47.886
		c-4.181-0.401-216.077-0.1-217.127,0.001c-34.583,3.363-66.926,20.818-88.733,47.885L34.957,79.953
		C12.414,107.934,0,143.133,0,179.065V498.51v0.001c0,6.121,4.963,11.082,11.082,11.082h489.836c6.12,0,11.082-4.962,11.082-11.082
		v-0.001V179.065C512,143.133,499.586,107.934,477.042,79.951z M459.784,93.858c19.378,24.055,30.052,54.315,30.052,85.207v264.012
		h-69.818V228.267c0-6.121-4.963-11.082-11.082-11.082s-11.082,4.962-11.082,11.082v31.686H289.247V151.219l18.44,18.439
		c2.13,2.129,4.965,3.246,7.84,3.246c1.725,0,3.464-0.402,5.07-1.23c33.299-17.148,53.984-51.017,53.984-88.392v-10.72h65.41
		c0.83,0,1.635-0.099,2.413-0.272L459.784,93.858z M22.165,465.242h69.818v22.186H22.165V465.242z M114.147,415.372h108.606v72.056
		H114.147V415.372z M244.918,138.338h22.164v349.09h-22.164V138.338z M289.247,415.372h108.606v72.056H289.247V415.372z
		 M397.853,393.208H289.247v-66.761h108.606V393.208z M397.853,304.284H289.247v-22.165h108.606V304.284z M222.753,393.208H114.147
		v-66.761h108.606V393.208z M222.753,304.284H114.147v-22.165h108.606V304.284z M489.836,487.428h-69.818v-22.186h69.818V487.428z
		 M374.58,26.579c17.663,3.816,34.194,12.063,47.878,23.818H374.58V26.579z M352.416,24.174v59.107
		c0,26.365-13.259,50.49-35.074,64.686l-16.142-16.142c17.408-9.347,29.052-27.744,29.052-48.544V24.169h21.721
		C352.12,24.169,352.268,24.174,352.416,24.174z M308.087,24.169v59.113c0,16.59-12.388,30.624-28.836,32.646
		c-1.294,0.162-45.208,0.162-46.523-0.002c-16.426-2.019-28.814-16.053-28.814-32.643V24.17h104.173V24.169z M181.749,24.169v59.113
		c0,20.801,11.646,39.201,29.05,48.546l-16.14,16.14c-21.815-14.196-35.074-38.321-35.074-64.686V24.174
		c0.147,0,0.296-0.006,0.443-0.006H181.749z M137.42,50.397H89.542c13.684-11.757,30.218-20.005,47.878-23.819V50.397z
		 M52.215,93.859L69.598,72.29c0.777,0.173,1.583,0.272,2.413,0.272h65.41v10.72c0,37.375,20.685,71.244,53.984,88.392
		c4.283,2.206,9.502,1.391,12.91-2.016l18.44-18.439v108.735H114.147v-78.417c0-6.121-4.963-11.082-11.082-11.082
		s-11.082,4.962-11.082,11.082v261.541H22.165V179.065C22.165,148.173,32.838,117.913,52.215,93.859z"/>
	<path style="fill:#231F20;" d="M408.935,170.454c-6.12,0-11.082,4.962-11.082,11.082v1.293c0,6.121,4.963,11.082,11.082,11.082
		s11.082-4.962,11.082-11.082v-1.293C420.017,175.417,415.055,170.454,408.935,170.454z"/>
	<path style="fill:#231F20;" d="M179.532,437.537h-22.165c-6.12,0-11.082,4.962-11.082,11.082c0,6.121,4.963,11.082,11.082,11.082
		h22.165c6.12,0,11.082-4.962,11.082-11.082C190.615,442.498,185.652,437.537,179.532,437.537z"/>
	<path style="fill:#231F20;" d="M354.632,437.537h-22.164c-6.12,0-11.082,4.962-11.082,11.082c0,6.121,4.963,11.082,11.082,11.082
		h22.164c6.12,0,11.082-4.962,11.082-11.082C365.714,442.498,360.752,437.537,354.632,437.537z"/>
</g>
</svg>