<?xml version="1.0" encoding="iso-8859-1"?>
<!-- Uploaded to: SVG Repo, www.svgrepo.com, Generator: SVG Repo Mixer Tools -->
<svg height="800px" width="800px" version="1.1" id="Layer_1" xmlns="http://www.w3.org/2000/svg" xmlns:xlink="http://www.w3.org/1999/xlink" 
	 viewBox="0 0 503.47 503.47" xml:space="preserve">
<g transform="translate(1 1)">
	<path style="fill:#ECF4F7;" d="M131.27,378.734h8.533h59.733c5.12,0,8.533,4.267,8.533,8.533V421.4v34.133v34.133
		c0,4.267-3.413,8.533-8.533,8.533h-76.8c0,0-8.533,0-17.067-8.533c-8.533,8.533-17.067,8.533-17.067,8.533
		c-8.533,0-34.133,0-59.733-25.6s-25.6-51.2-25.6-59.733V395.8c0,0,0-8.533,8.533-17.067h38.4h-38.4
		C3.27,370.2,3.27,361.667,3.27,361.667V293.4c0,0,0-8.533,8.533-17.067H131.27c8.533,8.533,8.533,17.067,8.533,17.067v85.333
		H131.27z M451.27,378.734h38.4c8.533,8.533,8.533,17.067,8.533,17.067v17.067c0,8.533,0,34.133-25.6,59.733
		c-25.6,25.6-51.2,25.6-59.733,25.6c0,0-8.533,0-17.067-8.533c-8.533,8.533-17.067,8.533-17.067,8.533h-76.8
		c-5.12,0-8.533-4.267-8.533-8.533v-34.133V421.4v-34.133c0-2.56,0.853-4.267,2.56-5.973c-1.707,1.707-2.56,3.413-2.56,5.973
		h-42.667v-59.733v-51.2v-51.2v-51.2v-51.2v-51.2h93.867l0,0c9.387,0,17.067-7.68,17.067-17.067l0,0h51.2
		c46.933,0,85.333,38.4,85.333,85.333v119.467c0,0,0,8.533-8.533,17.067H370.203c-8.533,8.533-8.533,17.067-8.533,17.067v85.333
		h-29.867h29.867h8.533h-8.533V293.4c0,0,0-8.533,8.533-17.067H489.67c8.533,8.533,8.533,17.067,8.533,17.067v68.267
		c0,0,0,8.533-8.533,17.067H451.27z M139.803,54.467c0,9.387,7.68,17.067,17.067,17.067h93.867v51.2v51.2v51.2v51.2v51.2v59.733
		H208.07c0-4.267-3.413-8.533-8.533-8.533h-59.733V293.4c0,0,0-8.533-8.533-17.067H11.803C3.27,267.8,3.27,259.267,3.27,259.267
		V139.8c0-46.933,38.4-85.333,85.333-85.333H139.803z"/>
	<path style="fill:#AAB1BA;" d="M208.07,455.534h85.333V421.4H208.07V455.534z M293.403,387.267V421.4H208.07v-34.133h42.667
		H293.403z M208.07,489.667h85.333v-34.133H208.07V489.667z"/>
	<path style="fill:#ECF4F7;" d="M361.67,20.334v34.133l0,0c0,9.387-7.68,17.067-17.067,17.067l0,0h-93.867H156.87
		c-9.387,0-17.067-7.68-17.067-17.067V20.334c0-10.24,6.827-17.067,17.067-17.067h187.733
		C354.843,3.267,361.67,10.093,361.67,20.334"/>
</g>
<path style="fill:#51565F;" d="M413.87,503.467c0,0-8.533,0-17.067-6.827c-8.533,6.827-17.067,6.827-17.067,6.827h-76.8
	c-5.12,0-10.24-3.413-11.947-8.533h-78.507c-1.707,5.12-6.827,8.533-11.947,8.533h-76.8c0,0-8.533,0-17.067-6.827
	c-8.533,6.827-17.067,6.827-17.067,6.827c-8.533,0-35.84,0-63.147-26.453C-0.85,450.56,0.003,423.254,0.003,413.867V396.8
	c0,0,0-8.533,6.827-17.067c-6.827-8.533-6.827-17.067-6.827-17.067V294.4c0,0,0-8.533,6.827-17.067
	c-6.827-8.533-6.827-17.067-6.827-17.067V140.8c0-49.493,40.107-89.6,89.6-89.6h17.067c2.56,0,4.267,1.707,4.267,4.267
	s-1.707,4.267-4.267,4.267H89.603c-44.373,0-81.067,36.693-81.067,81.067v119.467c0,0,0,5.973,5.973,12.8h83.627
	c2.56,0,4.267,1.707,4.267,4.267c0,2.56-1.707,4.267-4.267,4.267H14.51c-5.973,6.827-5.973,12.8-5.973,12.8v68.267
	c0,0,0,6.827,7.68,13.653c0.853,0.853,0.853,1.707,0.853,3.413s-0.853,2.56-0.853,3.413c-6.827,6.827-7.68,13.653-7.68,14.507
	v17.067c0,7.68,0,32.427,24.747,56.32c24.747,23.893,48.64,24.747,56.32,24.747c0,0,6.827,0,13.653-7.68
	c1.707-1.707,4.267-1.707,5.973,0c6.827,6.827,13.653,7.68,14.507,7.68h76.8c2.56,0,4.267-2.56,4.267-4.267v-102.4
	c0-2.56-1.707-4.267-4.267-4.267h-76.8c0,0-5.973,0-12.8,5.973v66.56c0,2.56-1.707,4.267-4.267,4.267s-4.267-1.707-4.267-4.267
	v-66.56c-6.827-5.973-12.8-5.973-12.8-5.973H46.937c-2.56,0-4.267-1.707-4.267-4.267c0-2.56,1.707-4.267,4.267-4.267h42.667
	c0,0,8.533,0,17.067,6.827c8.533-6.827,17.067-6.827,17.067-6.827h12.8V294.4c0,0,0-6.827-7.68-13.653
	c-1.707-1.707-1.707-4.267,0-5.973c6.827-6.827,7.68-13.653,7.68-14.507v-51.2c0-2.56,1.707-4.267,4.267-4.267
	c2.56,0,4.267,1.707,4.267,4.267v51.2c0,0,0,8.533-6.827,17.067c6.827,8.533,6.827,17.067,6.827,17.067v81.067h55.467
	c5.973,0,10.24,3.413,11.947,8.533h34.987V76.8h-89.6c-11.947,0-21.333-9.387-21.333-21.333V21.333
	C136.536,9.387,145.923,0,157.87,0h187.733c12.8,0,21.333,8.533,21.333,21.333V51.2h46.933c49.493,0,89.6,40.107,89.6,89.6v119.467
	c0,0,0,8.533-6.827,17.067c6.827,8.533,6.827,17.067,6.827,17.067v68.267c0,0,0,8.533-6.827,17.067
	c6.827,8.533,6.827,17.067,6.827,17.067v17.067c0,8.533,0,35.84-26.453,63.147S422.403,503.467,413.87,503.467z M401.07,488.96
	c6.827,5.973,12.8,5.973,12.8,5.973c7.68,0,32.427,0,56.32-24.747s24.747-48.64,24.747-56.32V396.8c0,0,0-6.827-7.68-13.653
	c-0.853-0.853-0.853-1.707-0.853-3.413s0.853-2.56,0.853-3.413c6.827-6.827,7.68-13.653,7.68-14.507v-68.267
	c0,0,0-6.827-7.68-13.653c-1.707-1.707-1.707-4.267,0-5.973c6.827-6.827,7.68-13.653,7.68-14.507V139.947
	c0-44.373-36.693-81.067-81.067-81.067h-51.2c-2.56,0-4.267-1.707-4.267-4.267V20.48c0-7.68-5.12-12.8-12.8-12.8H157.87
	c-7.68,0-12.8,5.12-12.8,12.8v34.133c0,6.827,5.973,12.8,12.8,12.8h170.667c2.56,0,4.267,1.707,4.267,4.267
	c0,2.56-1.707,4.267-4.267,4.267h-72.533v42.667h12.8c2.56,0,4.267,1.707,4.267,4.267c0,2.56-1.707,4.267-4.267,4.267h-12.8v42.667
	h12.8c2.56,0,4.267,1.707,4.267,4.267s-1.707,4.267-4.267,4.267h-12.8v42.667h12.8c2.56,0,4.267,1.707,4.267,4.267
	c0,2.56-1.707,4.267-4.267,4.267h-12.8v42.667h12.8c2.56,0,4.267,1.707,4.267,4.267c0,2.56-1.707,4.267-4.267,4.267h-12.8v42.667
	h12.8c2.56,0,4.267,1.707,4.267,4.267s-1.707,4.267-4.267,4.267h-12.8v51.2h34.987c1.707-5.12,6.827-8.533,11.947-8.533h55.467
	V294.4c0,0,0-8.533,6.827-17.067c-6.827-8.533-6.827-17.067-6.827-17.067v-51.2c0-2.56,1.707-4.267,4.267-4.267
	s4.267,1.707,4.267,4.267v51.2c0,0,0,5.973,5.973,12.8h83.627c2.56,0,4.267,1.707,4.267,4.267c0,2.56-1.707,4.267-4.267,4.267
	H372.91c-5.973,6.827-5.973,12.8-5.973,12.8v81.067h12.8c0,0,8.533,0,17.067,6.827c8.533-6.827,17.067-6.827,17.067-6.827h42.667
	c2.56,0,4.267,1.707,4.267,4.267S459.096,384,456.536,384H413.87c0,0-6.827,0-13.653,7.68c-1.707,1.707-4.267,1.707-5.973,0
	c-6.827-6.827-13.653-7.68-14.507-7.68H362.67l0,0h-59.733c-2.56,0-4.267,1.707-4.267,4.267v102.4c0,1.707,1.707,4.267,4.267,4.267
	h76.8c0,0,5.973,0,12.8-5.973V422.4c0-2.56,1.707-4.267,4.267-4.267s4.267,1.707,4.267,4.267V488.96z M213.336,486.4h76.8v-25.6
	h-76.8V486.4z M213.336,452.267h76.8v-25.6h-76.8V452.267z M213.336,418.134h76.8v-25.6h-76.8V418.134z M328.536,42.667h-153.6
	c-2.56,0-4.267-1.707-4.267-4.267c0-2.56,1.707-4.267,4.267-4.267h153.6c2.56,0,4.267,1.707,4.267,4.267
	C332.803,40.96,331.096,42.667,328.536,42.667z"/>
</svg>