<?xml version="1.0" encoding="iso-8859-1"?>
<!-- Uploaded to: SVG Repo, www.svgrepo.com, Generator: SVG Repo Mixer Tools -->
<svg height="800px" width="800px" version="1.1" id="Layer_1" xmlns="http://www.w3.org/2000/svg" xmlns:xlink="http://www.w3.org/1999/xlink" 
	 viewBox="0 0 512 512" xml:space="preserve">
<g>
	<path style="fill:#00AAF0;" d="M373.222,483.674l69.239-31.363c6.046-3.032,9.737-9.344,9.415-16.1l-1.692-41.611h-78.385
		L373.222,483.674z"/>
	<path style="fill:#00AAF0;" d="M138.777,483.674l-69.239-31.363c-6.046-3.032-9.737-9.344-9.415-16.1l1.692-41.611h78.385
		L138.777,483.674z"/>
</g>
<g>
	<path style="fill:#0096DC;" d="M139.05,466.686c-16.056-6.426-27.125-22.38-27.125-40.92c0-9.416,1.672-22.264,3.03-31.166H89.012
		c-1.347,9.406-2.741,21.472-2.741,31.166c0,14.739,4.547,28.401,12.244,39.67l40.263,18.239L139.05,466.686z"/>
	<path style="fill:#0096DC;" d="M136.283,461.228v34.205c0,4.722,3.829,8.551,8.551,8.551h222.33c4.722,0,8.551-3.829,8.551-8.551
		v-34.205H136.283z"/>
</g>
<path style="fill:#00AAF0;" d="M456.739,213.246c8.229-43.827,4.488-94.599-10.773-112.324
	c-18.434-21.407-78.801-41.599-78.801-41.599h-222.33c0,0-60.367,20.192-78.801,41.599C50.772,118.647,47.031,169.42,55.26,213.246
	c0,0-13.039,51.305-3.192,94.065c0,0-3.272,48.386-2.188,64.478c1.248,18.535,9.885,34.103,26.329,40.934l35.865,14.593
	c0.795,23.387,19.012,42.463,42.588,42.463h202.675c23.576,0,41.793-19.074,42.588-42.463l35.865-14.593
	c16.444-6.831,25.081-22.4,26.329-40.934c1.084-16.092-2.188-64.478-2.188-64.478C469.778,264.551,456.739,213.246,456.739,213.246z
	"/>
<g>
	<path style="fill:#0096DC;" d="M144.835,59.324c0,0,59.858,51.307,111.165,59.858c51.307-8.551,111.165-59.858,111.165-59.858
		l-20.927-41.853c-2.897-5.794-8.818-9.454-15.297-9.454H181.057c-6.477,0-12.4,3.66-15.297,9.454L144.835,59.324z"/>
	<path style="fill:#0096DC;" d="M52.068,307.311c0,0-3.272,48.386-2.188,64.478c1.248,18.535,9.885,34.103,26.329,40.934
		l35.865,14.593c-0.018-0.526-0.15-1.021-0.15-1.551c0-15.845,4.742-41.501,4.742-41.501c-14.587-42.753,2.515-85.505,2.515-85.505
		s-17.102-42.759,0-85.513V179.04c0,0-7.665-45.71-51.685-79.605c-0.474,0.497-1.033,0.99-1.462,1.489
		C50.772,118.647,47.031,169.42,55.26,213.246C55.26,213.246,42.221,264.551,52.068,307.311z"/>
	<path style="fill:#0096DC;" d="M459.93,307.311c0,0,3.272,48.386,2.188,64.478c-1.248,18.535-9.885,34.103-26.329,40.934
		l-35.865,14.593c0.018-0.526,0.15-1.021,0.15-1.551c0-15.845-4.742-41.501-4.742-41.501c14.587-42.754-2.515-85.506-2.515-85.506
		s17.102-42.759,0-85.513V179.04c0,0,7.665-45.71,51.685-79.605c0.474,0.497,1.033,0.99,1.462,1.489
		c15.262,17.723,19.003,68.496,10.773,112.323C456.739,213.246,469.778,264.551,459.93,307.311z"/>
</g>
<g>
	<path style="fill:#007DC8;" d="M255.999,84.977c0,0,46.176-27.769,84.243-74.15c-2.726-1.774-5.923-2.81-9.3-2.81H181.058
		c-3.378,0-6.575,1.036-9.3,2.81C209.823,57.208,255.999,84.977,255.999,84.977z"/>
	<path style="fill:#007DC8;" d="M112.073,427.316c-0.018-0.526-0.15-1.021-0.15-1.551c0-2.97,0.167-6.287,0.437-9.714
		c1.175-14.851,4.303-31.787,4.303-31.787c-2.735-8.017-4.356-16.033-5.184-23.767c-3.59-33.516,7.699-61.739,7.699-61.739
		s-17.102-42.759,0-85.513c0,0,0-15.525,0-25.656h-8.551c-9.445,0-17.102,7.656-17.102,17.102v3.905
		c-13.161,37.334-6.087,73.389-1.328,90.087c-4.756,16.211-12.104,50.956-1.862,87.28c-1.21,7.365-3.017,19.692-3.739,30.985
		L112.073,427.316z"/>
</g>
<path style="fill:#0096DC;" d="M372.949,466.686c16.056-6.426,27.125-22.38,27.125-40.92c0-9.416-1.672-22.264-3.03-31.166h25.943
	c1.347,9.406,2.741,21.472,2.741,31.166c0,14.739-4.547,28.401-12.244,39.67l-40.263,18.239L372.949,466.686z"/>
<path style="fill:#007DC8;" d="M399.925,427.316c0.018-0.526,0.15-1.021,0.15-1.551c0-2.97-0.167-6.287-0.437-9.714
	c-1.175-14.851-4.303-31.787-4.303-31.787c2.735-8.017,4.356-16.033,5.184-23.767c3.59-33.516-7.699-61.739-7.699-61.739
	s17.102-42.759,0-85.513c0,0,0-15.525,0-25.656h8.551c9.445,0,17.102,7.656,17.102,17.102v3.905
	c13.161,37.334,6.087,73.389,1.328,90.087c4.756,16.211,12.104,50.956,1.862,87.28c1.21,7.365,3.017,19.692,3.739,30.985
	L399.925,427.316z"/>
<path d="M464.932,213.02c7.439-41.37,5.48-95.992-12.892-117.327c-17.325-20.121-66.121-38.28-79.168-42.879l-19.465-38.928
	C349.126,5.321,340.517,0,330.941,0H181.058c-9.575,0-18.185,5.321-22.467,13.885l-19.465,38.929
	c-13.047,4.598-61.843,22.758-79.168,42.879c-18.372,21.335-20.331,75.957-12.891,117.327c-2.235,9.554-11.871,55.029-3.075,94.92
	c-0.506,7.686-3.135,49.172-2.111,64.388c0.853,12.664,4.765,23.667,11.218,32.256l-0.986,31.318
	c-0.443,9.887,4.98,19.135,13.83,23.576c0.1,0.051,0.203,0.099,0.306,0.146l62.016,27.899v7.91c0,9.136,7.432,16.568,16.568,16.568
	h222.33c9.136,0,16.568-7.432,16.568-16.568v-7.91l62.017-27.9c0.104-0.047,0.204-0.095,0.306-0.146
	c8.872-4.451,14.299-13.733,13.826-23.675l-1.56-30.472c6.796-8.693,10.919-19.965,11.796-33.001
	c1.024-15.216-1.605-56.702-2.111-64.388C476.803,268.049,467.167,222.574,464.932,213.02z M454.119,371.25
	c-0.65,9.673-4.298,26.964-21.405,34.07l-25.062,10.412c-0.95-12.299-3.184-25.802-4.071-30.878
	c5.301-16.555,6.279-32.905,5.39-46.996l43.693-18.151C453.547,334.944,454.831,360.689,454.119,371.25z M392.058,425.766
	c0,20.185-15.251,35.996-34.72,35.996h-93.322v-69.478h124.55C389.93,400.74,392.058,415.563,392.058,425.766z M119.941,425.766
	c0-10.189,2.128-25.022,3.492-33.482h124.55v69.478h-93.321C135.192,461.762,119.941,445.951,119.941,425.766z M79.285,405.32
	c-17.107-7.106-20.755-24.396-21.406-34.07c-0.711-10.559,0.573-36.305,1.456-51.543l43.693,18.151
	c-0.889,14.091,0.089,30.441,5.389,46.996c-0.887,5.076-3.12,18.581-4.07,30.878L79.285,405.32z M103.944,244.176
	c-2.032,25.58,4.103,46.902,6.709,54.571c-1.408,4.089-3.866,12.095-5.672,22.561l-45.791-19.022
	c-5.619-28.062-1.429-59.746,1.549-76.058L103.944,244.176z M143.185,68.377c13.261,10.803,60.433,47.242,104.796,57.364v79.486
	H127.198V179.04c0-1.841-0.581-43.753-48.398-79.077C95.43,86.958,127.025,74.125,143.185,68.377z M368.814,68.376
	c16.157,5.742,47.75,18.569,64.387,31.586c-47.818,35.325-48.4,77.237-48.4,79.078v26.188H264.016v-79.486
	C308.38,115.619,355.553,79.178,368.814,68.376z M451.261,226.228c2.978,16.313,7.168,47.998,1.549,76.058l-45.791,19.022
	c-1.805-10.467-4.264-18.473-5.672-22.561c2.606-7.669,8.74-28.992,6.708-54.571L451.261,226.228z M264.016,376.251v-69.478h123.069
	c3.494,11.296,10.447,40.02,2.312,69.478H264.016z M122.602,376.251c-8.088-29.348-1.152-58.158,2.325-69.478h123.056v69.478
	H122.602z M387.201,221.261c9.785,29.31,3.234,58.145-0.155,69.478h-123.03v-69.478H387.201z M247.983,290.739h-123.03
	c-3.392-11.343-9.939-40.173-0.156-69.478h123.186V290.739z M255.995,75.468c-10.821-7.12-40.96-28.332-67.023-59.435h134.053
	C297.012,47.072,266.823,68.335,255.995,75.468z M449.225,209.713l-43.596,18.11c-1.164-5.299-2.722-10.684-4.795-16.09v-32.646
	c0.018-1.529,0.933-36.527,42.894-66.964C453.271,131.091,455.854,172.448,449.225,209.713z M357.13,57.179
	c-13.82,11.041-55.044,42.094-93.113,52.073V89.4c11.512-7.462,46.121-31.47,75.203-67.824c0.022-0.029,0.041-0.059,0.063-0.089
	L357.13,57.179z M172.716,21.488c0.022,0.029,0.041,0.06,0.064,0.089c29.082,36.354,63.692,60.361,75.203,67.823v19.851
	c-38.027-9.976-79.283-41.035-93.112-52.074L172.716,21.488z M68.27,112.123c41.962,30.437,42.877,65.434,42.894,66.917v32.693
	c-2.073,5.406-3.632,10.792-4.795,16.09l-43.596-18.11C56.145,172.447,58.727,131.091,68.27,112.123z M68.133,436.592
	c0.002-0.043,0.003-0.086,0.004-0.128l0.581-18.465c1.429,0.767,2.888,1.494,4.415,2.128l31.276,12.993
	c1.5,11.031,6.357,21.221,14.061,29.245c2.451,2.553,5.122,4.806,7.966,6.753l-53.43-24.037
	C69.873,443.447,67.964,440.131,68.133,436.592z M144.3,495.432V476.73c3.367,0.701,6.833,1.066,10.362,1.066h93.321v18.171H144.835
	C144.54,495.967,144.3,495.726,144.3,495.432z M367.164,495.967H264.016v-18.171h93.322c3.528,0,6.995-0.365,10.361-1.066v18.702
	C367.699,495.726,367.458,495.967,367.164,495.967z M438.992,445.081l-53.432,24.038c2.845-1.948,5.517-4.201,7.969-6.754
	c7.704-8.024,12.562-18.214,14.061-29.245l31.275-12.992c1.399-0.581,2.743-1.239,4.061-1.932l0.942,18.398
	C444.035,440.131,442.126,443.447,438.992,445.081z"/>
</svg>