<?xml version="1.0" encoding="iso-8859-1"?>
<!-- Uploaded to: SVG Repo, www.svgrepo.com, Generator: SVG Repo Mixer Tools -->
<svg height="800px" width="800px" version="1.1" id="Layer_1" xmlns="http://www.w3.org/2000/svg" xmlns:xlink="http://www.w3.org/1999/xlink" 
	 viewBox="0 0 512 512" xml:space="preserve">
<path style="fill:#B4E1FA;" d="M60.236,392.818l-2.28,43.392c-0.322,6.757,3.368,13.067,9.415,16.101l60.324,30.263l0.015-89.754
	H60.236V392.818z"/>
<polygon style="fill:#A0D2F0;" points="93.528,465.433 119.181,478.302 119.181,392.818 93.528,392.818 "/>
<path style="fill:#B4E1FA;" d="M451.74,392.818l2.28,43.392c0.322,6.757-3.368,13.067-9.415,16.101l-60.324,30.263l-0.014-89.755
	H451.74z"/>
<g>
	<polygon style="fill:#A0D2F0;" points="418.449,465.433 392.795,478.302 392.795,392.818 418.449,392.818 	"/>
	<path style="fill:#A0D2F0;" d="M375.716,503.983H136.283c-4.722,0-8.551-3.829-8.551-8.551v-25.653h256.534v25.653
		C384.267,500.155,380.438,503.983,375.716,503.983z"/>
</g>
<path style="fill:#B4E1FA;" d="M453.61,113.301c-0.567-17.168-11.352-32.33-27.384-38.496l-84.715-32.583H170.488L85.773,74.803
	C69.741,80.97,58.955,96.132,58.389,113.3l-9.111,276.237c-0.24,7.119,3.954,13.641,10.533,16.373l59.371,24.715v30.602
	c0,4.722,3.829,8.551,8.551,8.551h256.534c4.722,0,8.551-3.829,8.551-8.551v-30.62l0.002,0.016l59.37-24.713
	c6.578-2.733,10.772-9.256,10.533-16.373L453.61,113.301z"/>
<path style="fill:#91C5E6;" d="M204.693,238.898h-34.205c-9.446,0-17.102-7.656-17.102-17.102v-59.858h68.409v59.858
	C221.795,231.241,214.138,238.898,204.693,238.898z"/>
<polygon style="fill:#A0D2F0;" points="221.795,187.591 187.59,204.693 153.386,187.591 153.386,161.937 221.795,161.937 "/>
<path style="fill:#91C5E6;" d="M341.511,238.898h-34.205c-9.446,0-17.102-7.656-17.102-17.102v-59.858h68.409v59.858
	C358.613,231.241,350.957,238.898,341.511,238.898z"/>
<polygon style="fill:#A0D2F0;" points="358.613,187.591 324.409,204.693 290.204,187.591 290.204,161.937 358.613,161.937 "/>
<polygon style="fill:#91C5E6;" points="256,67.875 187.59,8.017 324.409,8.017 "/>
<g>
	<path style="fill:#A0D2F0;" d="M187.59,8.017L256,67.875l-35.254,28.203c-3.994,3.196-9.882,2.192-12.594-2.145L170.488,33.67
		L187.59,8.017z"/>
	<path style="fill:#A0D2F0;" d="M324.409,8.017L256,67.875l35.254,28.203c3.994,3.196,9.882,2.192,12.594-2.145l37.664-60.262
		L324.409,8.017z"/>
	<path style="fill:#A0D2F0;" d="M59.809,405.911l59.372,24.714V159.003c0-9.072-3.603-17.771-10.019-24.186L65.522,91.176
		c-4.27,6.46-6.867,14.048-7.133,22.124l-9.111,276.237C49.037,396.656,53.231,403.178,59.809,405.911z"/>
	<path style="fill:#A0D2F0;" d="M462.721,389.538l-9.111-276.237c-0.266-8.075-2.863-15.664-7.133-22.124l-43.641,43.641
		c-6.415,6.414-10.019,15.114-10.019,24.186v271.605l0.002,0.016l59.37-24.713C458.768,403.178,462.962,396.656,462.721,389.538z"/>
</g>
<g>
	<path style="fill:#91C5E6;" d="M93.528,187.591v232.355l25.653,10.678V170.489h-8.551
		C101.185,170.489,93.528,178.145,93.528,187.591z"/>
	<path style="fill:#91C5E6;" d="M418.471,187.591v232.355l-25.653,10.678V170.489h8.551
		C410.814,170.489,418.471,178.145,418.471,187.591z"/>
</g>
<path d="M470.734,389.274l-9.11-276.237c-0.674-20.432-13.438-38.375-32.519-45.716L348.99,36.508
	c0.906-2.39,0.646-5.105-0.808-7.285L331.08,3.57c-1.281-1.921-3.326-3.196-5.615-3.5c-0.353-0.046-0.704-0.061-1.055-0.061V0
	H187.591v0.009c-0.351,0-0.702,0.015-1.055,0.061c-2.289,0.304-4.334,1.58-5.615,3.5l-17.102,25.653
	c-1.453,2.179-1.715,4.894-0.808,7.285L82.895,67.321c-19.081,7.339-31.844,25.283-32.519,45.716l-9.11,276.229
	c-0.279,8.213,3.555,15.96,9.91,20.821L49.95,435.83c-0.471,9.913,4.955,19.195,13.827,23.647l55.938,28.062v7.894
	c0,9.136,7.432,16.568,16.568,16.568h239.432c9.136,0,16.568-7.432,16.568-16.568v-7.894l55.939-28.063
	c8.872-4.451,14.299-13.733,13.827-23.646l-1.226-25.744C467.179,405.223,471.012,397.48,470.734,389.274z M449.109,398.51
	l-48.274,20.095V159.003c0-6.995,2.725-13.572,7.671-18.518l35.658-35.658c0.828,2.799,1.334,5.725,1.433,8.738l9.11,276.245
	C454.836,393.569,452.588,397.065,449.109,398.51z M264.016,461.762V169.954h18.171v51.841c0,13.851,11.268,25.119,25.119,25.119
	h9.086v214.848H264.016z M127.732,461.762c-0.294,0-0.534-0.241-0.534-0.534v-30.484c0.001-0.095,0.002-0.19,0-0.285V169.954h18.171
	v51.841c0,13.851,11.268,25.119,25.119,25.119h9.086v214.848H127.732z M201.354,98.183c2.504,4.005,6.612,6.756,11.268,7.55
	c0.924,0.156,1.851,0.234,2.777,0.234c3.735,0,7.398-1.265,10.355-3.63l22.228-17.782v69.366H126.885
	c-1.116-9.353-5.289-18.01-12.053-24.774l-16.413-16.413l90.318-34.739L201.354,98.183z M323.262,77.996l90.318,34.739
	l-16.413,16.413c-6.764,6.764-10.937,15.421-12.053,24.774H264.016V84.555l22.23,17.784c2.958,2.364,6.619,3.629,10.354,3.629
	c0.925,0,1.853-0.077,2.777-0.234c4.656-0.793,8.764-3.544,11.269-7.552L323.262,77.996z M307.306,230.881
	c-5.01,0-9.086-4.076-9.086-9.086v-21.234l22.603,11.301c1.129,0.564,2.357,0.847,3.585,0.847s2.457-0.282,3.585-0.847
	l22.603-11.301v21.234c0,5.01-4.076,9.086-9.086,9.086H307.306z M350.597,182.637l-26.188,13.094l-26.188-13.094v-12.682h52.376
	V182.637z M256,57.222l-47.073-41.189h94.146L256,57.222z M170.488,230.881c-5.01,0-9.086-4.076-9.086-9.086v-21.234l22.603,11.301
	c1.129,0.564,2.357,0.847,3.585,0.847s2.457-0.282,3.585-0.847l22.603-11.301v21.234c0,5.01-4.076,9.086-9.086,9.086H170.488z
	 M213.778,182.637L187.59,195.73l-26.188-13.094v-12.682h52.376V182.637z M195.607,246.914h9.086
	c13.851,0,25.119-11.268,25.119-25.119v-51.841h18.171v291.808h-52.376V246.914z M332.425,246.914h9.086
	c13.851,0,25.119-11.268,25.119-25.119v-51.841h18.171v291.273c0,0.294-0.241,0.534-0.534,0.534h-51.841V246.914z M435.805,90.511
	l-9.818,9.818l-94.07-36.181l8.579-13.727l82.852,31.866C428.153,84.135,432.367,86.973,435.805,90.511z M331.969,33.81
	l-34.92,55.872c-0.034,0.057-0.127,0.204-0.365,0.245c-0.244,0.031-0.374-0.069-0.423-0.11l-27.773-22.219l54.32-47.53
	L331.969,33.81z M189.19,20.068l54.32,47.53l-27.772,22.218c-0.052,0.041-0.184,0.142-0.424,0.111
	c-0.237-0.041-0.33-0.189-0.363-0.244L180.03,33.81L189.19,20.068z M88.651,82.286l82.852-31.866l8.579,13.727l-94.07,36.181
	l-9.818-9.818C79.632,86.973,83.846,84.135,88.651,82.286z M66.401,113.565c0.099-3.013,0.605-5.939,1.433-8.738l35.658,35.658
	c4.947,4.946,7.671,11.523,7.671,18.518v259.602l-48.279-20.096c-3.475-1.444-5.723-4.939-5.595-8.707L66.401,113.565z
	 M65.964,436.592l0.907-19.058l44.293,18.438v25.256c0,1.521,0.223,2.989,0.609,4.389l-40.807-20.47
	C67.758,443.535,65.794,440.179,65.964,436.592z M135.749,495.432v-17.637h112.234v18.171H136.283
	C135.989,495.967,135.749,495.726,135.749,495.432z M375.716,495.967H264.016v-18.171H376.25v17.637
	C376.25,495.726,376.01,495.967,375.716,495.967z M441.032,445.145l-40.807,20.47c0.386-1.4,0.608-2.867,0.608-4.388v-25.256
	l44.293-18.437l0.908,19.057C446.205,440.179,444.241,443.535,441.032,445.145z"/>
</svg>