<?xml version="1.0" encoding="iso-8859-1"?>
<!-- Uploaded to: SVG Repo, www.svgrepo.com, Generator: SVG Repo Mixer Tools -->
<svg height="800px" width="800px" version="1.1" id="Layer_1" xmlns="http://www.w3.org/2000/svg" xmlns:xlink="http://www.w3.org/1999/xlink" 
	 viewBox="0 0 512 512" xml:space="preserve">
<path style="fill:#707487;" d="M379.193,243.83l5.049,217.398l59.883-8.551l-16.42-361.258c-0.149-3.232-1.088-6.254-2.356-9.12
	l0.005-0.016l-0.007,0.012c-2.367-5.343-6.34-9.908-11.728-12.621l-55.005-27.451H153.386L98.368,69.67
	c-5.367,2.708-9.327,7.252-11.694,12.571l-0.068-0.115l0.047,0.162c-1.269,2.866-2.208,5.887-2.356,9.121L67.875,452.676
	l59.833,8.551l5.1-217.398l15.1,52.849c3.604,12.614,4.257,25.889,1.909,38.797l-30.656,168.508h97.091
	c12.938,0,23.85-9.634,25.456-22.471l14.293-114.343l14.293,114.343c1.604,12.837,12.518,22.471,25.455,22.471h97.095
	l-30.657-168.507c-2.347-12.905-1.695-26.176,1.907-38.788L379.193,243.83z"/>
<g>
	<path style="fill:#5B5D6E;" d="M132.808,243.83L86.652,82.288c-1.269,2.866-2.208,5.887-2.356,9.121L67.875,452.676l59.832,8.551
		L132.808,243.83z"/>
	<path style="fill:#5B5D6E;" d="M367.168,59.324c-5.634-28.172-26.118-41.493-39.437-47.304c-6.269-2.735-13.585-4.003-20.424-4.003
		H204.693c-6.839,0-14.152,1.268-20.421,4.003c-13.318,5.811-33.803,19.132-39.437,47.304l34.205,8.551l-25.657,25.653
		l102.614,196.676l-0.033-0.121l0.041,0.121L358.62,93.528l-25.657-25.653L367.168,59.324z"/>
</g>
<path style="fill:#4E4F5F;" d="M279.628,8.017h-47.255c-22.554,0-38.933,21.445-33,43.204l56.624,221.882l56.63-221.882
	C318.561,29.462,302.18,8.017,279.628,8.017z"/>
<path style="fill:#5B5D6E;" d="M379.193,243.83l46.156-161.541c1.269,2.866,2.208,5.887,2.356,9.121l16.42,361.267l-59.884,8.551
	L379.193,243.83z"/>
<path d="M435.713,91.055c-0.553-12.137-7.636-23.073-18.487-28.541l-49.374-24.875c-10.06-18.679-26.466-28.408-36.916-32.967
	C324.031,1.659,315.639,0,307.307,0H204.693c-8.33,0-16.722,1.659-23.627,4.672c-10.439,4.553-26.82,14.267-36.882,32.905
	L94.757,62.512c-10.842,5.47-17.919,16.403-18.469,28.533L59.867,452.313c-0.184,4.053,2.688,7.604,6.69,8.271l50.811,8.469
	l-6.094,33.496c-0.425,2.339,0.21,4.746,1.733,6.57c1.523,1.825,3.776,2.881,6.154,2.881h97.091
	c16.945,0,31.308-12.679,33.409-29.494l6.34-50.71l6.34,50.71C264.441,499.32,278.805,512,295.749,512h97.094
	c2.377,0,4.632-1.055,6.155-2.881c1.523-1.826,2.158-4.232,1.733-6.57l-6.094-33.496l50.807-8.469
	c4.002-0.667,6.875-4.219,6.69-8.271L435.713,91.055z M357.341,53.517l-26.322,6.58c-2.803,0.7-5.011,2.854-5.782,5.637
	c-0.771,2.783,0.015,5.767,2.058,7.809l21.495,21.492l-70.178,134.505l41.785-176.348c3.435-12.76,0.808-26.093-7.217-36.601
	c-0.055-0.072-0.114-0.138-0.17-0.21c4.155,0.493,8.118,1.503,11.515,2.984C336.318,24.512,350.922,34.512,357.341,53.517z
	 M255.999,255.441l-48.62-205.203h97.243L255.999,255.441z M279.627,16.033c8.23,0,15.815,3.751,20.811,10.291
	c1.849,2.42,3.232,5.084,4.137,7.88h-97.152c0.904-2.796,2.287-5.459,4.137-7.88c4.996-6.541,12.582-10.291,20.811-10.291H279.627z
	 M187.479,19.367c3.395-1.481,7.358-2.491,11.511-2.984c-0.056,0.072-0.114,0.138-0.17,0.21
	c-8.025,10.507-10.653,23.84-7.217,36.599l41.781,176.336L163.213,95.036l21.495-21.492c2.043-2.043,2.828-5.025,2.058-7.809
	c-0.771-2.783-2.98-4.937-5.782-5.637l-26.322-6.58C161.081,34.512,175.685,24.512,187.479,19.367z M90.755,125.833l34.007,119.021
	l-5.138,208.319l-43.418-7.236L90.755,125.833z M141.843,304.635c2.173,7.605,2.573,15.739,1.158,23.521l-4.921,27.049l1.447-58.679
	L141.843,304.635z M233.752,480.518c-1.101,8.808-8.625,15.449-17.501,15.449h-87.485l30.007-164.941
	c1.853-10.19,1.33-20.838-1.515-30.797L95.17,82.92c1.67-2.551,3.997-4.674,6.809-6.093l34.841-17.578
	c-0.036,3.639,2.416,6.937,6.07,7.85l20.467,5.117l-15.643,15.641c-2.477,2.476-3.059,6.273-1.44,9.377l101.709,194.941v74.5
	L233.752,480.518z M295.75,495.967c-8.876,0-16.399-6.641-17.501-15.449l-14.232-113.85v-74.489L365.727,97.237
	c1.62-3.104,1.037-6.902-1.44-9.377l-15.643-15.641l20.467-5.117c3.643-0.911,6.093-4.19,6.072-7.815l34.828,17.547
	c2.817,1.419,5.147,3.543,6.818,6.098l-62.086,217.299c-2.845,9.959-3.369,20.608-1.516,30.796l30.008,164.94H295.75z
	 M372.478,296.528l1.447,58.679l-4.921-27.052c-1.416-7.782-1.015-15.915,1.158-23.521L372.478,296.528z M392.38,453.175
	l-5.138-208.318l34.004-119.01l14.55,320.091L392.38,453.175z"/>
<path d="M217.52,282.188c-6.778,0-12.292,5.514-12.292,12.292s5.514,12.292,12.292,12.292s12.292-5.514,12.292-12.292
	S224.298,282.188,217.52,282.188z"/>
<path d="M217.52,342.046c-6.778,0-12.292,5.514-12.292,12.292c0,6.778,5.514,12.292,12.292,12.292s12.292-5.514,12.292-12.292
	C229.812,347.56,224.298,342.046,217.52,342.046z"/>
</svg>