<?xml version="1.0" encoding="iso-8859-1"?>
<!-- Uploaded to: SVG Repo, www.svgrepo.com, Generator: SVG Repo Mixer Tools -->
<svg height="800px" width="800px" version="1.1" id="Layer_1" xmlns="http://www.w3.org/2000/svg" xmlns:xlink="http://www.w3.org/1999/xlink" 
	 viewBox="0 0 512 512" xml:space="preserve">
<path style="fill:#959CB5;" d="M453.18,401.37l1.114,40.091c0.168,3.533-1.856,6.803-5.091,8.23l-64.922,28.634l-0.013,0.005
	l0.503-76.96H453.18z"/>
<g>
	<polygon style="fill:#7F8499;" points="427.482,459.27 384.242,478.33 384.771,401.37 425.749,401.37 	"/>
	<path style="fill:#7F8499;" d="M392.818,76.426l-37.732-60.371c-3.125-5-8.606-8.038-14.503-8.038H171.416
		c-5.897,0-11.377,3.038-14.503,8.038l-37.732,60.371L256,127.733L392.818,76.426z"/>
	<path style="fill:#7F8499;" d="M136.284,469.779v25.653c0,4.722,3.829,8.551,8.551,8.551h222.33c4.722,0,8.551-3.829,8.551-8.551
		v-25.653H136.284z"/>
</g>
<path style="fill:#959CB5;" d="M59.324,401.37l-1.114,40.091c-0.168,3.533,1.856,6.803,5.091,8.23l64.406,28.639l0,0l0.026-76.96
	H59.324z"/>
<polygon style="fill:#7F8499;" points="85.022,459.27 127.733,478.33 127.733,401.37 86.755,401.37 "/>
<path style="fill:#959CB5;" d="M453.794,126.47c-0.681-20.07-13.007-37.897-31.544-45.62l-63.954-26.648
	c-5.16-2.15-11.044-1.643-15.76,1.359l-72.764,46.304c-8.404,5.348-19.143,5.348-27.546,0l-72.764-46.304
	c-4.716-3.001-10.6-3.508-15.76-1.359L89.75,80.851c-18.536,7.724-30.863,25.551-31.544,45.62l-9.128,268.983
	c-0.121,3.559,1.977,6.821,5.265,8.187l56.288,23.382h1.198l-0.748,25.215c-0.247,9.614,7.48,17.541,17.097,17.541h255.646
	c9.617,0,17.344-7.927,17.097-17.541l-0.748-25.215h1.198l56.287-23.382c3.289-1.366,5.387-4.628,5.265-8.187L453.794,126.47z"/>
<g>
	<path style="fill:#7F8499;" d="M462.923,395.453l-9.127-268.983c-0.388-11.415-4.643-22.028-11.563-30.546l-33.883,33.882
		c-9.622,9.622-15.028,22.672-15.028,36.279v12.954l8.048,247.983l56.288-23.382C460.945,402.274,463.044,399.013,462.923,395.453z"
		/>
	<path style="fill:#7F8499;" d="M104.155,129.808L69.994,95.647c-7.059,8.562-11.397,19.285-11.788,30.824l-9.128,268.983
		c-0.12,3.559,1.977,6.821,5.266,8.187l56.286,23.383h1.198l7.353-247.983v-12.953C119.182,152.48,113.777,139.43,104.155,129.808z"
		/>
</g>
<g>
	<path style="fill:#707487;" d="M256,80.372L347.822,9.74c-2.245-1.056-4.681-1.723-7.239-1.723H171.416
		c-2.559,0-4.995,0.668-7.239,1.723L256,80.372z"/>
	<path style="fill:#707487;" d="M114.906,170.489h-4.563c-9.244,0-16.815,7.345-17.095,16.586l-6.947,229.842l24.329,10.106h1.031
		l7.52-248.866v-3.393C119.182,172.403,117.267,170.489,114.906,170.489z"/>
	<path style="fill:#707487;" d="M397.597,170.489h4.563c9.244,0,16.815,7.345,17.095,16.586l6.947,229.842l-24.857,10.106l0,0
		l-8.022-248.866v-3.393C393.322,172.403,395.236,170.489,397.597,170.489z"/>
</g>
<g>
	<polygon style="fill:#F5DCB4;" points="394.453,213.244 118.121,213.244 117.088,247.449 395.556,247.449 	"/>
	<path style="fill:#F5DCB4;" d="M57.868,136.43l-1.725,50.84c1.054,0.133,2.092,0.321,3.181,0.321
		c14.168,0,25.653-11.485,25.653-25.653c0-14.168-11.485-25.653-25.653-25.653C58.824,136.284,58.359,136.403,57.868,136.43z"/>
</g>
<path d="M470.734,389.266L461.807,126.2c-0.785-23.138-15.101-43.845-36.473-52.749l-35.185-14.66l-28.236-46.674
	C357.391,4.643,349.156,0,340.42,0H171.58c-8.735,0-16.971,4.643-21.492,12.117l-28.236,46.674l-35.186,14.66
	c-21.371,8.904-35.687,29.609-36.473,52.749l-8.927,263.066c-0.278,8.212,3.555,15.957,9.909,20.82l-1.226,25.744
	c-0.471,9.913,4.955,19.195,13.828,23.647l64.491,32.351v3.603c0,9.136,7.432,16.568,16.568,16.568h222.33
	c9.136,0,16.568-7.432,16.568-16.568v-3.603l64.491-32.352c8.872-4.451,14.299-13.733,13.827-23.646l-1.226-25.744
	C467.179,405.223,471.012,397.479,470.734,389.266z M445.782,126.743l8.927,263.065c0.127,3.76-2.121,7.256-5.596,8.7
	l-41.316,17.163l-6.967-236.868c-0.13-4.426-3.838-7.873-8.249-7.777c-4.425,0.13-7.908,3.823-7.777,8.25l0.764,25.952H264.017
	v-90.196l82.824-52.706c2.503-1.593,5.633-1.863,8.372-0.722l63.954,26.648C434.762,94.749,445.209,109.858,445.782,126.743z
	 M386.575,239.432H264.017v-18.171h122.024L386.575,239.432z M247.983,239.432H125.425l0.534-18.171h122.024V239.432z
	 M137.049,461.762c-4.81,0-9.304-1.899-12.654-5.351c-3.35-3.45-5.118-7.997-4.976-12.804l5.534-188.141h123.03v206.296H137.049z
	 M264.017,255.466h123.03l5.534,188.141c0.141,4.807-1.626,9.355-4.976,12.804c-3.35,3.451-7.844,5.351-12.654,5.351H264.017
	V255.466z M365.096,48.351l-3.714-1.548c-7.573-3.158-16.226-2.411-23.147,1.995L256,101.128l-7.571-4.819l99.38-76.446
	c0.13,0.183,0.268,0.358,0.386,0.552L365.096,48.351z M258.502,68.333l-71.912-52.3h139.903L258.502,68.333z M163.806,20.416
	c0.158-0.262,0.34-0.506,0.523-0.747l80.927,58.856l-11.217,8.629L173.768,48.8c-6.922-4.405-15.574-5.152-23.147-1.995
	l-3.715,1.548L163.806,20.416z M92.833,88.251l63.955-26.648c2.738-1.142,5.867-0.872,8.372,0.722l82.823,52.706v90.196H126.431
	l0.763-25.952c0.13-4.426-3.352-8.119-7.777-8.25c-4.416-0.087-8.119,3.352-8.249,7.777l-6.966,236.868l-41.316-17.163
	c-3.474-1.444-5.723-4.939-5.596-8.7l6.601-194.519c16.411-2.237,29.102-16.336,29.102-33.352c0-16.23-11.544-29.815-26.852-32.975
	l0.075-2.219C66.791,109.858,77.238,94.749,92.833,88.251z M65.582,145.469c6.64,2.532,11.378,8.95,11.378,16.468
	c0,7.941-5.278,14.669-12.509,16.871L65.582,145.469z M65.965,436.592l0.907-19.066l36.824,15.297l-0.304,10.312
	c-0.237,8.053,2.333,15.724,7.288,21.935l-39.716-19.923C67.757,443.535,65.795,440.179,65.965,436.592z M144.301,495.432v-17.637
	h103.683v18.171H144.835C144.54,495.967,144.301,495.726,144.301,495.432z M367.165,495.967H264.017v-18.171h103.683v17.637
	C367.699,495.726,367.46,495.967,367.165,495.967z M441.034,445.145l-39.716,19.923c4.954-6.21,7.525-13.881,7.288-21.934
	l-0.304-10.312l36.824-15.297l0.908,19.066C446.205,440.179,444.243,443.535,441.034,445.145z"/>
<path d="M181.575,342.457c-4.199-1.397-8.74,0.87-10.141,5.07l-25.653,76.96c-1.4,4.201,0.87,8.741,5.071,10.141
	c0.841,0.28,1.695,0.414,2.536,0.414c3.356,0,6.484-2.124,7.604-5.483l25.653-76.96
	C188.045,348.397,185.775,343.857,181.575,342.457z"/>
<path d="M340.565,347.527c-1.401-4.2-5.941-6.468-10.141-5.07c-4.201,1.4-6.47,5.941-5.071,10.141l25.653,76.96
	c1.12,3.36,4.248,5.483,7.604,5.483c0.84,0,1.695-0.134,2.536-0.414c4.201-1.4,6.47-5.941,5.071-10.141L340.565,347.527z"/>
</svg>