<?xml version="1.0" encoding="utf-8"?>
<!-- Uploaded to: SVG Repo, www.svgrepo.com, Generator: SVG Repo Mixer Tools -->
<svg width="800px" height="800px" viewBox="-12 0 256 256" xmlns="http://www.w3.org/2000/svg" xmlns:xlink="http://www.w3.org/1999/xlink" preserveAspectRatio="xMidYMid">
  <defs>
    <style>

      .cls-3 {
        fill: #a83dec;
      }

      .cls-4 {
        fill: url(#linear-gradient-1);
      }

      .cls-5 {
        fill: #fce202;
      }
    </style>

    <linearGradient id="linear-gradient-1" gradientUnits="userSpaceOnUse" x1="116" y1="256" x2="116" y2="0">
      <stop offset="0" stop-color="#a83dec"/>
      <stop offset="1" stop-color="#b858f5"/>
    </linearGradient>
  </defs>
  <g id="shirt">
    <path d="M80.000,122.000 C80.000,122.000 80.000,-0.000 80.000,-0.000 C80.000,19.882 96.118,36.000 116.000,36.000 C135.882,36.000 152.000,19.882 152.000,-0.000 C152.000,-0.000 152.000,122.000 152.000,122.000 C152.000,122.000 80.000,122.000 80.000,122.000 Z" id="path-1" class="cls-3" fill-rule="evenodd"/>
    <path d="M199.000,-0.000 C199.000,-0.000 199.000,70.000 199.000,70.000 C199.000,94.962 212.706,116.951 232.000,129.867 C232.000,129.867 232.000,240.000 232.000,240.000 C232.000,248.836 224.836,256.000 216.000,256.000 C216.000,256.000 16.000,256.000 16.000,256.000 C7.163,256.000 -0.000,248.836 -0.000,240.000 C-0.000,240.000 -0.000,129.867 -0.000,129.867 C19.293,116.951 33.000,94.962 33.000,70.000 C33.000,70.000 33.000,-0.000 33.000,-0.000 C33.000,-0.000 79.000,-0.000 79.000,-0.000 C79.000,-0.000 79.000,86.000 79.000,86.000 C79.000,105.882 96.118,122.000 116.000,122.000 C135.882,122.000 153.000,105.882 153.000,86.000 C153.000,86.000 153.000,-0.000 153.000,-0.000 C153.000,-0.000 199.000,-0.000 199.000,-0.000 Z" id="path-2" class="cls-4" fill-rule="evenodd"/>
    <path d="M40.000,-0.000 C40.000,-0.000 40.000,69.000 40.000,69.000 C40.000,98.605 23.904,124.430 -0.000,138.264 C-0.000,138.264 -0.000,128.867 -0.000,128.867 C19.293,115.951 32.000,93.962 32.000,69.000 C32.000,69.000 32.000,-0.000 32.000,-0.000 C32.000,-0.000 40.000,-0.000 40.000,-0.000 ZM160.000,-0.000 C160.000,-0.000 160.000,85.000 160.000,85.000 C160.000,109.300 140.300,129.000 116.000,129.000 C91.699,129.000 72.000,109.300 72.000,85.000 C72.000,85.000 72.000,-0.000 72.000,-0.000 C72.000,-0.000 80.000,-0.000 80.000,-0.000 C80.000,-0.000 80.000,85.000 80.000,85.000 C80.000,104.882 96.118,121.000 116.000,121.000 C135.882,121.000 152.000,104.882 152.000,85.000 C152.000,85.000 152.000,-0.000 152.000,-0.000 C152.000,-0.000 160.000,-0.000 160.000,-0.000 ZM192.000,69.000 C192.000,69.000 192.000,-0.000 192.000,-0.000 C192.000,-0.000 200.000,-0.000 200.000,-0.000 C200.000,-0.000 200.000,69.000 200.000,69.000 C200.000,93.962 212.706,115.951 232.000,128.867 C232.000,128.867 232.000,138.264 232.000,138.264 C208.096,124.430 192.000,98.605 192.000,69.000 Z" id="path-3" class="cls-5" fill-rule="evenodd"/>
    <path d="M99.000,256.000 C99.000,256.000 99.000,208.000 99.000,208.000 C99.000,208.000 91.000,208.000 91.000,208.000 C86.582,208.000 83.000,204.418 83.000,200.000 C83.000,200.000 83.000,186.000 83.000,186.000 C83.000,181.582 86.582,178.000 91.000,178.000 C91.000,178.000 125.000,178.000 125.000,178.000 C129.418,178.000 133.000,181.582 133.000,186.000 C133.000,186.000 133.000,256.000 133.000,256.000 C133.000,256.000 99.000,256.000 99.000,256.000 Z" id="path-4" class="cls-5" fill-rule="evenodd"/>
  </g>
</svg>