<?xml version="1.0" encoding="iso-8859-1"?>
<!-- Uploaded to: SVG Repo, www.svgrepo.com, Generator: SVG Repo Mixer Tools -->
<svg version="1.1" id="Layer_1" xmlns="http://www.w3.org/2000/svg" xmlns:xlink="http://www.w3.org/1999/xlink" 
	 viewBox="0 0 511.999 511.999" xml:space="preserve">
<g>
	<path style="fill:#F7B737;" d="M201.173,465.2h-12.321v-37.996h-19.79V465.2h-12.321c-8.968,0-14.791,9.564-10.565,17.474
		c6.251,11.703,18.586,19.667,32.782,19.667c14.196,0,26.53-7.963,32.782-19.667C215.964,474.763,210.14,465.2,201.173,465.2z"/>
	<path style="fill:#F7B737;" d="M353.255,465.2h-12.321v-37.996h-19.79V465.2h-12.321c-8.968,0-14.791,9.564-10.565,17.474
		c6.251,11.703,18.586,19.667,32.782,19.667c14.195,0,26.53-7.963,32.782-19.667C368.046,474.763,362.222,465.2,353.255,465.2z"/>
</g>
<path style="fill:#FFD578;" d="M411.873,385.451l-5.198-38.872V158.145c0-82.785-67.733-150.52-150.519-150.52l0,0
	c-82.785,0-150.519,67.733-150.519,150.519V341.58l-5.548,44.142c-2.617,20.824,13.616,39.226,34.604,39.226h50.605h27.437
	c18.365,0,33.501-14.403,34.412-32.745l9.009-181.361c0,0-62.986-28.2-62.986-62.986s28.2-62.986,62.986-62.986
	s62.986,28.2,62.986,62.986s-62.986,62.986-62.986,62.986l8.875,181.336c0.898,18.351,16.039,32.77,34.413,32.77h29.668h48.191
	C398.403,424.95,414.669,406.363,411.873,385.451z"/>
<g>
	<path style="fill:#F7B737;" d="M406.518,264.134c-37.467,0.005-92.647,0.011-147.898,0.015l3.086,63.043
		c55.312-0.004,109.75-0.011,144.813-0.016V264.134z"/>
	<path style="fill:#F7B737;" d="M105.48,264.15v63.044c36.009,0.005,90.162,0.003,144.727-0.001l3.132-63.044
		C197.44,264.154,142.062,264.155,105.48,264.15z"/>
</g>
<rect x="330.018" y="201.867" style="fill:#FFC37B;" width="52.038" height="20.818"/>
<g>
	<path style="fill:#F7B737;" d="M138.424,184.299v-60.004c0-5.714,4.675-10.389,10.389-10.389l0,0
		c5.714,0,10.389,4.675,10.389,10.389v60.004"/>
	<path style="fill:#F7B737;" d="M149.122,222.688h-0.618c-5.544,0-10.08-4.536-10.08-10.08v-60.622c0-5.544,4.536-10.08,10.08-10.08
		h0.618c5.544,0,10.08,4.536,10.08,10.08v60.622C159.202,218.151,154.666,222.688,149.122,222.688z"/>
	<path style="fill:#F7B737;" d="M255.943,84.872c13.788,0,26.532,4.443,36.905,11.958l49.676-61.617
		c-24.529-17.358-54.418-27.587-86.581-27.587l0,0c-32.114,0-61.959,10.198-86.468,27.507l48.603,62.392
		C228.617,89.583,241.728,84.872,255.943,84.872z"/>
</g>
<g>
	<rect x="169.066" y="424.953" style="fill:#7C460B;" width="19.791" height="9.682"/>
	<rect x="321.142" y="424.953" style="fill:#7C460B;" width="19.791" height="9.682"/>
</g>
<path d="M419.432,384.44l-5.131-38.367V158.145c0-42.076-16.496-81.743-46.448-111.697C337.901,16.496,298.232,0,256.157,0
	c-42.076,0-81.743,16.496-111.697,46.448c-29.953,29.954-46.448,69.621-46.448,111.697v182.957l-5.488,43.67
	c-1.52,12.095,2.233,24.275,10.298,33.417s19.681,14.385,31.873,14.385h25.725v27.031h-4.695c-6.943,0-13.225,3.562-16.8,9.526
	c-3.553,5.927-3.737,13.092-0.49,19.167c7.808,14.619,22.945,23.701,39.507,23.701c16.561,0,31.7-9.082,39.508-23.701
	c3.245-6.076,3.062-13.24-0.491-19.167c-3.577-5.965-9.856-9.526-16.8-9.526h-4.695v-27.031h17.275
	c22.453,0,40.913-17.566,42.029-39.992l1.336-26.903l1.315,26.873c0,0.001,0,0.001,0,0.001c1.099,22.442,19.56,40.022,42.031,40.022
	h13.055v27.031h-4.695c-6.943,0-13.225,3.562-16.8,9.526c-3.553,5.927-3.737,13.092-0.49,19.167
	c7.808,14.619,22.945,23.701,39.507,23.701c16.561,0,31.7-9.082,39.508-23.701c3.245-6.076,3.062-13.24-0.491-19.167
	c-3.577-5.965-9.856-9.526-16.8-9.526h-4.695v-27.031h29.762c12.255,0,23.912-5.289,31.983-14.51
	C417.359,408.842,421.057,396.587,419.432,384.44z M200.156,474.858c2.212,0,3.338,1.48,3.719,2.117
	c0.371,0.617,1.124,2.259,0.12,4.139c-5.151,9.643-15.135,15.634-26.056,15.634s-20.906-5.991-26.055-15.635
	c-1.005-1.881-0.251-3.521,0.119-4.138c0.381-0.637,1.507-2.117,3.719-2.117h12.321c4.212,0,7.626-3.413,7.626-7.626v-30.37h4.54
	v30.37c0,4.212,3.413,7.626,7.626,7.626H200.156z M352.238,474.858c2.212,0,3.338,1.48,3.719,2.117
	c0.371,0.617,1.124,2.259,0.12,4.139c-5.151,9.643-15.135,15.634-26.056,15.634c-10.921,0-20.906-5.991-26.055-15.635
	c-1.005-1.881-0.251-3.521,0.119-4.138c0.381-0.637,1.507-2.117,3.719-2.117h12.321c4.212,0,7.626-3.413,7.626-7.626v-30.37h4.54
	v30.37c0,4.212,3.413,7.626,7.626,7.626H352.238z M269.125,319.8l-2.34-47.799l3.451,0.007c3.793,0.004,9.211,0.006,15.712,0.008
	c4.354,0.001,9.194,0.001,14.358,0.001c10.251,0,21.777-0.001,33.302-0.004c27.75-0.005,55.481-0.016,65.443-0.02v47.793
	C357.447,319.803,287.753,319.822,269.125,319.8z M113.263,319.803v-47.793c3.948,0.003,9.24,0.005,15.482,0.007
	c4.623,0.001,9.758,0.001,15.236,0.001c10.956,0,23.282-0.001,35.608-0.004c26.508-0.005,53.011-0.014,65.895-0.018l-2.374,47.793
	C201.141,319.803,135.325,319.821,113.263,319.803z M256.157,92.497c30.525,0,55.36,24.835,55.36,55.36
	c0,22.995-37.413,45.878-55.364,54.571c-17.956-8.677-55.356-31.526-55.356-54.571C200.797,117.332,225.632,92.497,256.157,92.497z
	 M399.05,158.145v98.597c-44.452,0.018-120.979,0.04-133.011,0.009l-2.017-41.227c6.046-3.028,17.021-8.931,28.101-16.952
	c22.99-16.641,34.647-33.703,34.647-50.715c0-20.564-8.842-39.098-22.917-52.015l39.334-50.947
	C377.134,71.044,399.05,112.08,399.05,158.145z M330.612,36.227l-39.048,50.576c-10.418-6.065-22.508-9.558-35.407-9.558
	c-13.373,0-25.891,3.738-36.562,10.222L180.578,36.93c21.938-13.728,47.846-21.678,75.579-21.678
	C283.416,15.251,308.915,22.928,330.612,36.227z M168.079,45.699l39.422,51.059c-13.51,12.87-21.956,31.011-21.956,51.099
	c0,17.01,11.657,34.074,34.647,50.715c11.078,8.019,22.05,13.922,28.097,16.95l-2.048,41.221
	c-42.959,0.016-110.572,0.034-132.979,0.015v-98.614C113.263,112.553,134.727,71.881,168.079,45.699z M212.735,417.324h-78.042
	c-7.817,0-15.266-3.362-20.436-9.223c-5.171-5.862-7.578-13.67-6.603-21.425l5.548-44.143c0.04-0.316,0.06-0.633,0.06-0.952v-6.527
	c6.735,0.005,17.401,0.007,29.891,0.008c10.735,0,22.814-0.001,34.892-0.004c25.812-0.005,51.614-0.014,64.305-0.018l-2.822,56.787
	C238.82,406.124,227.05,417.324,212.735,417.324z M397.811,408.02c-5.174,5.912-12.648,9.303-20.506,9.303h-77.859
	c-14.326,0-26.097-11.208-26.797-25.518v0.001l-2.778-56.755l0.365,0.001c6.317,0.006,17.139,0.009,29.968,0.009
	c10.276,0,21.841-0.001,33.405-0.004c27.75-0.005,55.481-0.016,65.443-0.02v11.542c0,0.338,0.022,0.676,0.067,1.011l5.198,38.871
	C405.356,394.249,402.986,402.107,397.811,408.02z"/>
<path d="M334.356,201.87c0,4.212,3.413,7.626,7.626,7.626h33.085c4.212,0,7.626-3.413,7.626-7.626c0-4.212-3.413-7.626-7.626-7.626
	h-33.085C337.77,194.244,334.356,197.657,334.356,201.87z"/>
<path d="M375.067,215.062h-33.085c-4.212,0-7.626,3.413-7.626,7.626c0,4.212,3.413,7.626,7.626,7.626h33.085
	c4.212,0,7.626-3.413,7.626-7.626C382.692,218.476,379.279,215.062,375.067,215.062z"/>
<path d="M148.504,230.314h0.617c9.764,0,17.707-7.943,17.707-17.706v-28.309v-32.315v-27.69c0-9.934-8.081-18.015-18.016-18.015
	c-9.934,0-18.015,8.081-18.015,18.015v27.69v32.314v28.309C130.798,222.371,138.741,230.314,148.504,230.314z M151.578,212.608
	c0,1.331-1.124,2.454-2.455,2.454h-0.617c-1.331,0-2.454-1.124-2.454-2.454v-28.309v-32.315c0-1.331,1.124-2.454,2.454-2.454h0.617
	c1.332,0,2.455,1.124,2.455,2.454v32.314V212.608z M148.813,121.531c1.499,0,2.765,1.265,2.765,2.764v10.176
	c-0.805-0.113-1.621-0.191-2.455-0.191h-0.617c-0.835,0-1.65,0.078-2.454,0.19v-10.176
	C146.049,122.796,147.314,121.531,148.813,121.531z"/>
</svg>