<?xml version="1.0" encoding="iso-8859-1"?>
<!-- Uploaded to: SVG Repo, www.svgrepo.com, Generator: SVG Repo Mixer Tools -->
<svg height="800px" width="800px" version="1.1" id="Layer_1" xmlns="http://www.w3.org/2000/svg" xmlns:xlink="http://www.w3.org/1999/xlink" 
	 viewBox="0 0 512 512" xml:space="preserve">
<path style="fill:#FF405F;" d="M340.216,0.007c-10.24,36.903-44.053,63.999-84.217,63.999c-40.164,0-73.978-27.097-84.217-63.999H0
	V163.91h103.403v348.083h305.193V163.91H512V0.007H340.216z"/>
<polygon style="fill:#FBBA00;" points="256,176.209 278.598,221.998 329.13,229.341 292.565,264.983 301.197,315.311 256,291.55 
	210.803,315.311 219.435,264.983 182.87,229.341 233.402,221.998 "/>
<path style="fill:#FB788A;" d="M256,511.993V64.007l0,0c-40.164,0-73.978-27.097-84.217-63.999H0V163.91h103.403v348.083H256z"/>
<polygon style="fill:#FBDB80;" points="256,291.55 256,176.209 233.402,221.998 182.87,229.341 219.435,264.983 210.802,315.311 "/>
</svg>