<?xml version="1.0" encoding="iso-8859-1"?>
<!-- Uploaded to: SVG Repo, www.svgrepo.com, Generator: SVG Repo Mixer Tools -->
<svg version="1.1" id="Layer_1" xmlns="http://www.w3.org/2000/svg" xmlns:xlink="http://www.w3.org/1999/xlink" 
	 viewBox="0 0 512 512" xml:space="preserve">
<path style="fill:#64C1DF;" d="M182.23,7.825l-61.856,21.387v138.755c0,11.518-4.674,21.95-12.227,29.504
	c-7.553,7.553-17.986,12.227-29.504,12.227V471.56l135.626,31.82l41.731-42.253l41.731,42.253l135.626-31.82V209.698
	c-23.046,0-41.731-18.685-41.731-41.731V29.212L329.769,7.825H182.23z"/>
<g>
	<polygon style="fill:#FFFFFF;" points="182.23,7.825 120.374,29.212 120.374,50.599 182.23,29.212 189.849,29.212 	"/>
	<polygon style="fill:#FFFFFF;" points="329.769,7.825 322.151,29.212 329.769,29.212 391.625,50.599 391.625,29.212 	"/>
</g>
<polygon style="fill:#E57788;" points="329.769,7.825 255.999,214.914 182.23,7.825 "/>
<polygon style="fill:#37A0BD;" points="255.999,461.127 276.865,482.253 276.865,156.335 255.999,214.914 "/>
<g>
	<rect x="115.157" y="363.059" style="fill:#FFFFFF;" width="83.462" height="27.125"/>
	<rect x="313.378" y="363.059" style="fill:#FFFFFF;" width="83.462" height="27.125"/>
</g>
<circle cx="227.308" cy="297.855" r="7.825"/>
<circle cx="227.308" cy="339.586" r="7.825"/>
<circle cx="227.308" cy="381.014" r="7.825"/>
<path d="M107.333,398.009h99.111v-42.774h-99.111V398.009z M122.982,370.884h67.813v11.476h-67.813V370.884z"/>
<path d="M305.555,398.009h99.111v-42.774h-99.111V398.009z M321.204,370.884h67.813v11.476h-67.813V370.884z"/>
<path d="M433.356,201.873c-18.695,0-33.906-15.21-33.906-33.906V23.637L331.084,0H180.916L112.55,23.637v144.33
	c0,9.051-3.528,17.565-9.935,23.971c-6.408,6.408-14.92,9.935-23.971,9.935H70.82v275.887l145.934,34.238l39.247-39.738L295.246,512
	l145.934-34.238V201.873H433.356z M255.999,191.596L204.658,47.469h102.683L255.999,191.596z M312.916,31.82H199.084l-5.76-16.171
	h125.353L312.916,31.82z M211.785,494.759L86.468,465.358V216.911c10.26-1.619,19.721-6.416,27.212-13.907
	c9.363-9.363,14.519-21.805,14.519-35.037V34.786l49.262-17.034l70.714,198.514v241.648L211.785,494.759z M425.531,465.358
	L300.214,494.76l-36.39-36.844V216.266l70.714-198.514l49.262,17.034v133.181c0,24.664,18.11,45.177,41.731,48.938V465.358z"/>
</svg>