<?xml version="1.0" encoding="iso-8859-1"?>
<!-- Uploaded to: SVG Repo, www.svgrepo.com, Generator: SVG Repo Mixer Tools -->
<svg height="800px" width="800px" version="1.1" id="Layer_1" xmlns="http://www.w3.org/2000/svg" xmlns:xlink="http://www.w3.org/1999/xlink" 
	 viewBox="0 0 512 512" xml:space="preserve">
<path style="fill:#B9F7F9;" d="M447.145,512H64.855c-9.425,0-17.067-7.641-17.067-17.067V80.786c0-9.425,7.641-17.067,17.067-17.067
	h55.125c4.095,0,8.053,1.472,11.154,4.148l74.453,64.279c38.375-57.479,38.375-61.84,50.413-61.84
	c12.114,0,12.468,5.004,50.413,61.84l74.453-64.279c3.1-2.676,7.059-4.148,11.154-4.148h55.125c9.425,0,17.067,7.641,17.067,17.067
	v414.147C464.211,504.359,456.57,512,447.145,512z"/>
<g>
	<path style="fill:#00D8E0;" d="M447.145,63.719H392.02c-4.095,0-8.053,1.472-11.154,4.148l-74.453,64.279
		c-37.945-56.835-38.3-61.84-50.413-61.84V512h191.145c9.425,0,17.066-7.641,17.066-17.067V80.786
		C464.211,71.361,456.57,63.719,447.145,63.719z"/>
	<path style="fill:#00D8E0;" d="M238.933,512h34.133V82.199c-2.745-4.113-6.752-11.892-17.067-11.892
		c-10.315,0-14.32,7.778-17.067,11.892V512z"/>
</g>
<path style="fill:#00A2A9;" d="M273.066,82.199c-2.745-4.113-6.752-11.892-17.067-11.892V512h17.067V82.199z"/>
<g>
	<path style="fill:#00D8E0;" d="M169.53,290.135h-52.337c-9.425,0-17.067-7.641-17.067-17.066s7.641-17.067,17.067-17.067h52.337
		c9.425,0,17.067,7.641,17.067,17.067S178.955,290.135,169.53,290.135z"/>
	<path style="fill:#00D8E0;" d="M408.092,75.046l-22.755-63.715c-3.675-10.291-15.972-14.532-25.208-8.674
		C249.277,72.918,262.048,65.035,256,68.161c-6.056-3.131,6.723,4.757-104.128-65.505c-9.228-5.853-21.53-1.626-25.208,8.674
		l-22.755,63.715c-2.371,6.639-0.416,14.053,4.919,18.658l89.076,76.902c7.786,6.717,19.665,5.068,25.347-3.442l32.749-49.054
		l32.749,49.054c5.673,8.497,17.552,10.168,25.347,3.442l89.076-76.902C408.509,89.099,410.463,81.685,408.092,75.046z"/>
</g>
<g>
	<path style="fill:#00A2A9;" d="M408.092,75.046l-22.755-63.715c-3.675-10.291-15.972-14.532-25.208-8.674
		C249.277,72.918,262.048,65.035,256,68.161v49.949l32.749,49.054c5.673,8.498,17.552,10.168,25.347,3.442l89.076-76.902
		C408.509,89.099,410.463,81.685,408.092,75.046z"/>
	<path style="fill:#00A2A9;" d="M394.808,290.135H342.47c-9.425,0-17.067-7.641-17.067-17.066s7.641-17.067,17.067-17.067h52.337
		c9.425,0,17.067,7.641,17.067,17.067S404.233,290.135,394.808,290.135z"/>
</g>
</svg>