<?xml version="1.0" encoding="iso-8859-1"?>
<!-- Uploaded to: SVG Repo, www.svgrepo.com, Generator: SVG Repo Mixer Tools -->
<svg version="1.1" id="Layer_1" xmlns="http://www.w3.org/2000/svg" xmlns:xlink="http://www.w3.org/1999/xlink" 
	 viewBox="0 0 512 512" xml:space="preserve">
<polygon style="fill:#00C37A;" points="512,33.391 322.783,33.391 322.783,111.304 189.217,111.304 189.217,33.391 0,33.391 
	0,222.609 66.783,222.609 66.783,478.609 445.217,478.609 445.217,222.609 512,222.609 "/>
<polygon style="fill:#60DC4D;" points="189.217,111.304 189.217,33.391 0,33.391 0,222.609 66.783,222.609 66.783,478.609 
	256,478.609 256,111.304 "/>
<rect x="189.217" y="111.304" width="133.565" height="33.391"/>
<polygon points="322.783,33.391 322.783,111.304 356.174,111.304 356.174,66.783 478.609,66.783 478.609,189.217 411.826,189.217 
	411.826,445.217 100.174,445.217 100.174,189.217 33.391,189.217 33.391,66.783 155.826,66.783 155.826,111.304 189.217,111.304 
	189.217,33.391 0,33.391 0,222.609 66.783,222.609 66.783,478.609 445.217,478.609 445.217,222.609 512,222.609 512,33.391 "/>
</svg>